<svg version="1.2" xmlns="http://www.w3.org/2000/svg" viewBox="0 0 922 914" width="202" height="200">
	<title>7666-ai</title>
	<style>
		.s0 { fill: #ee477a } 
		.s1 { fill: #ef6596 } 
		.s2 { fill: #85be40 } 
		.s3 { fill: #71a742 } 
		.s4 { fill: #63913f } 
	</style>
	<g id="Слой 1">
		<g id="&lt;Group&gt;">
			<g id="&lt;Group&gt;">
				<path id="&lt;Path&gt;" class="s0" d="m527.7 247.4c0 92.9-55.2 133.7-55.2 133.7v-274.1c0 0 55.2 47.5 55.2 140.4z"/>
				<path id="&lt;Path&gt;" class="s1" d="m472.5 107v274.1c0 0-55.2-40.8-55.2-133.7 0-92.9 55.2-140.4 55.2-140.4z"/>
				<g id="&lt;Group&gt;">
				</g>
				<g id="&lt;Group&gt;">
				</g>
				<path id="&lt;Path&gt;" class="s2" d="m481.7 808.1h-18.4v-413h18.4z"/>
				<g id="&lt;Group&gt;">
					<path id="&lt;Path&gt;" class="s3" d="m472.5 378.2v42.2c-21.9-0.3-29.7-19.1-29.7-42.2z"/>
					<path id="&lt;Path&gt;" class="s4" d="m502.1 378.2c0 23.3-6.9 42.2-29.2 42.2h-0.4v-42.2z"/>
				</g>
			</g>
			<g id="&lt;Group&gt;">
				<g id="&lt;Group&gt;">
					<g id="&lt;Group&gt;">
						<path id="&lt;Path&gt;" class="s3" d="m443.3 808.7c-24-248.6-126.1-421.4-127.1-423.1l15.7-9.5c1.1 1.8 105.3 178.2 129.7 430.8z"/>
					</g>
					<path id="&lt;Path&gt;" class="s0" d="m315.2 282.3c49.9 78.3 25.2 142.4 25.2 142.4l-147.1-231.3c0 0 72.1 10.5 121.9 88.9z"/>
					<path id="&lt;Path&gt;" class="s1" d="m193.3 193.4l147.1 231.3c0 0-68.4-4.9-118.3-83.2-49.8-78.4-28.8-148.1-28.8-148.1z"/>
					<g id="&lt;Group&gt;">
					</g>
					<g id="&lt;Group&gt;">
					</g>
					<g id="&lt;Group&gt;">
						<path id="&lt;Path&gt;" class="s3" d="m338.9 422.2l22.6 35.6c-18.7 11.5-35.3-0.2-47.7-19.7z"/>
						<path id="&lt;Path&gt;" class="s4" d="m363.9 406.3c12.5 19.6 16.8 39.3-2 51.3l-0.4 0.2-22.6-35.6z"/>
					</g>
					<path id="&lt;Path&gt;" class="s2" d="m237.2 454.8c0 0 168.5 170.5 187.6 353.1l52.3 0.2c0 0 0-315.4-239.9-353.3z"/>
				</g>
				<g id="&lt;Group&gt;">
					<g id="&lt;Group&gt;">
						<path id="&lt;Path&gt;" class="s3" d="m501.7 808.7c24-248.6 126.1-421.4 127.1-423.1l-15.7-9.5c-1.1 1.8-105.3 178.2-129.7 430.8z"/>
					</g>
					<path id="&lt;Path&gt;" class="s0" d="m629.8 282.3c-49.9 78.3-25.2 142.4-25.2 142.4l147.1-231.3c0 0-72.1 10.5-121.9 88.9z"/>
					<path id="&lt;Path&gt;" class="s1" d="m751.7 193.4l-147.1 231.3c0 0 68.4-4.9 118.3-83.2 49.8-78.4 28.8-148.1 28.8-148.1z"/>
					<g id="&lt;Group&gt;">
					</g>
					<g id="&lt;Group&gt;">
					</g>
					<g id="&lt;Group&gt;">
						<path id="&lt;Path&gt;" class="s3" d="m606.1 422.2l-22.6 35.6c18.7 11.5 35.3-0.2 47.7-19.7z"/>
						<path id="&lt;Path&gt;" class="s4" d="m581.1 406.3c-12.5 19.6-16.8 39.3 2 51.3l0.4 0.2 22.6-35.6z"/>
					</g>
					<path id="&lt;Path&gt;" class="s4" d="m707.8 454.8c0 0-168.5 170.5-187.6 353.1l-52.3 0.2c0 0 0-315.4 239.9-353.3z"/>
				</g>
			</g>
		</g>
	</g>
</svg>