<svg width="480" height="799" viewBox="0 0 480 799" fill="none" xmlns="http://www.w3.org/2000/svg">
<g clip-path="url(#clip0_1138_313)">
<rect width="480" height="799" fill="#181826"/>
<path d="M-103.719 1079L-598.185 964.451L-683 174.58L-240.987 -199L117 360.046L-103.719 1079Z" fill="#4945FF"/>
<path d="M504 858.823L387.956 906L310 802.866L377.943 692L497.795 726.531L504 858.823Z" fill="#4945FF"/>
<g filter="url(#filter0_d_1138_313)">
<path d="M74.3024 801.001H70.0352C69.6326 801.001 69.3105 800.708 69.3105 800.27V629.041C69.3105 628.675 69.6326 628.383 70.0352 628.383H74.3024C74.705 628.383 75.0271 628.675 75.0271 629.041V800.27C75.0271 800.708 74.705 801.001 74.3024 801.001Z" fill="black"/>
<path d="M316.168 801.001H311.981C311.498 801.001 311.176 800.708 311.176 800.27V629.041C311.176 628.675 311.498 628.383 311.981 628.383H316.168C316.57 628.383 316.973 628.675 316.973 629.041V800.27C316.973 800.708 316.57 801.001 316.168 801.001Z" fill="black"/>
<path d="M334.203 732.978H57.7969V727.785H334.203V732.978Z" fill="black"/>
<path d="M338.068 636.064H53.9324C52.8857 636.064 52 635.332 52 634.308V624.873C52 623.922 52.8857 623.117 53.9324 623.117H338.068C339.114 623.117 340 623.922 340 624.873V634.308C340 635.332 339.114 636.064 338.068 636.064Z" fill="#B7772F"/>
<path d="M338.068 655.52H53.9324C52.8857 655.52 52 654.715 52 653.764V644.256C52 643.305 52.8857 642.573 53.9324 642.573H338.068C339.114 642.573 340 643.305 340 644.256V653.764C340 654.715 339.114 655.52 338.068 655.52Z" fill="#B7772F"/>
<path d="M338.068 674.902H53.9324C52.8857 674.902 52 674.171 52 673.22V663.711C52 662.761 52.8857 661.956 53.9324 661.956H338.068C339.114 661.956 340 662.761 340 663.711V673.22C340 674.171 339.114 674.902 338.068 674.902Z" fill="#B7772F"/>
<path d="M338.068 694.358H53.9324C52.8857 694.358 52 693.627 52 692.603V683.168C52 682.217 52.8857 681.412 53.9324 681.412H338.068C339.114 681.412 340 682.217 340 683.168V692.603C340 693.627 339.114 694.358 338.068 694.358Z" fill="#B7772F"/>
<path d="M338.068 727.784H53.9324C52.8857 727.784 52 726.98 52 726.029V716.52C52 715.569 52.8857 714.765 53.9324 714.765H338.068C339.114 714.765 340 715.569 340 716.52V726.029C340 726.98 339.114 727.784 338.068 727.784Z" fill="#B7772F"/>
<path d="M54.4152 667.003C54.1737 668.174 54.4958 669.417 55.2204 670.368C55.945 671.392 56.9917 672.123 58.2799 672.416C58.763 672.489 59.3266 672.27 59.4877 671.758C59.5682 671.319 59.3266 670.807 58.8435 670.734C58.6825 670.685 58.5483 670.636 58.441 670.587C58.3873 670.587 58.3336 670.587 58.2799 670.587C58.3605 670.587 58.1189 670.514 58.2799 670.587C58.0652 670.49 57.8505 670.368 57.6358 670.222C57.6358 670.222 57.4748 670.148 57.5553 670.222C57.7163 670.295 57.5553 670.148 57.4748 670.148C57.4211 670.051 57.3406 669.978 57.2332 669.929C57.1259 669.832 57.0454 669.734 56.9917 669.636C57.0722 669.783 56.8307 669.563 56.9917 669.636C56.938 669.588 56.9112 669.539 56.9112 669.49C56.7502 669.344 56.616 669.173 56.5086 668.978C56.5086 668.929 56.4818 668.881 56.4281 668.832C56.4281 668.686 56.4013 668.564 56.3476 668.466C56.3476 668.369 56.3208 668.271 56.2671 668.174C56.2671 668.393 56.2671 668.1 56.2671 668.174C56.2671 668.125 56.2671 668.076 56.2671 668.027C56.2671 667.881 56.2671 667.759 56.2671 667.662V667.515C56.3476 667.003 56.1866 666.491 55.623 666.418C55.1399 666.345 54.4958 666.564 54.4152 667.003Z" fill="#9B5D42"/>
<path d="M55.9448 686.824C55.3812 687.409 55.2202 688.214 55.3007 689.018C55.4617 689.676 55.9448 690.335 56.5889 690.7C56.9915 690.993 57.4746 691.066 57.9577 691.139C58.4408 691.139 58.9238 690.7 58.9238 690.262C58.8433 689.75 58.4408 689.384 57.9577 689.384C57.904 689.384 57.8503 689.384 57.7966 689.384C57.8503 689.384 57.9308 689.384 58.0382 689.384C57.8771 689.384 57.743 689.359 57.6356 689.311C57.6893 689.311 57.7698 689.335 57.8772 689.384C57.7698 689.335 57.6625 689.262 57.5551 689.164C57.6088 689.213 57.6624 689.262 57.7161 689.311C57.6088 689.213 57.5014 689.116 57.3941 689.018C57.4477 689.067 57.4746 689.116 57.4746 689.164C57.3672 689.067 57.2867 688.921 57.233 688.725C57.2867 688.823 57.3135 688.896 57.3135 688.945C57.2599 688.799 57.2062 688.628 57.1525 688.433C57.2062 688.53 57.233 688.604 57.233 688.652C57.1794 688.506 57.1794 688.36 57.233 688.214C57.233 688.262 57.2062 688.335 57.1525 688.433C57.2062 688.335 57.2599 688.213 57.3135 688.067C57.2599 688.165 57.2062 688.238 57.1525 688.287C57.2062 688.189 57.2867 688.092 57.3941 687.994C57.3404 688.043 57.2867 688.092 57.233 688.14C57.2867 688.14 57.3135 688.116 57.3135 688.067C57.6356 687.701 57.7161 687.19 57.3135 686.824C56.911 686.531 56.3474 686.458 55.9448 686.824Z" fill="#9B5D42"/>
<path d="M123.337 658.956C123.256 666.563 129.778 675.267 127.523 684.337C131.388 682.655 135.816 682.435 140.084 681.923C151.517 680.461 162.306 676.365 172.934 672.268C172.128 667.441 171.323 662.614 170.518 657.786C154.791 659.2 139.064 660.59 123.337 661.955V658.956Z" fill="#FED5B7"/>
<path d="M131.629 608.488C126.556 607.172 121.081 605.782 116.089 607.537C114.076 608.269 112.305 609.439 110.614 610.682C102.241 616.68 94.8335 623.775 88.7949 631.821C94.2699 635.332 100.308 638.184 106.75 640.086C107.394 640.232 109.568 641.403 110.212 641.329C112.386 641.183 114.56 637.38 114.398 637.526C115.928 645.279 118.344 652.886 121.484 660.2C121.725 660.786 122.047 661.444 122.611 661.883C123.255 662.395 124.141 662.614 125.026 662.687C130.126 663.516 135.225 664.345 140.324 665.174C144.672 665.832 149.1 666.491 153.528 666.418C160.775 666.198 167.941 663.638 173.496 659.396C174.14 658.957 174.704 658.445 175.106 657.86C175.589 657.202 175.911 656.397 176.153 655.592C177.495 651.496 178.864 647.4 180.259 643.304C181.306 640.232 182.353 637.16 183.077 634.015C183.882 630.431 184.366 626.774 183.56 623.19C182.836 619.606 180.742 616.168 177.441 614.12C173.093 611.487 167.538 611.706 162.305 611.706C157.581 611.755 152.831 611.585 148.054 611.194L131.629 608.488Z" fill="#E69530"/>
<path d="M142.9 615.947L155.38 616.752C156.748 616.825 157.795 617.995 157.634 619.312L155.863 642.206C155.702 643.449 154.574 644.473 153.206 644.4L140.726 643.522C139.357 643.449 138.311 642.352 138.391 641.035L140.243 618.142C140.323 616.825 141.531 615.874 142.9 615.947Z" fill="#4945FF"/>
<path d="M155.219 620.994C154.897 621.945 153.77 622.383 152.804 622.091C151.837 621.798 151.274 620.774 151.676 619.897C151.998 619.019 153.045 618.507 154.092 618.799C155.058 619.165 155.541 620.116 155.219 620.994Z" fill="#24226F"/>
<path d="M128.972 568.405C130.662 566.942 132.756 565.918 135.091 565.406C141.129 564.017 147.409 562.993 153.609 563.797C160.936 564.821 168.263 569.21 169.873 575.866C170.356 577.987 170.276 580.255 171.403 582.156C172.61 584.204 174.945 585.448 176.717 587.057C178.569 588.739 179.857 591.372 178.488 593.274C180.823 593.347 183.319 593.493 185.01 595.249C185.734 596.127 186.056 597.224 185.654 598.248C185.01 599.784 183.238 600.003 181.628 600.223C162.144 602.417 142.498 604.611 122.853 604.099C121.484 604.026 120.035 603.953 119.39 602.71C119.068 602.051 119.149 601.32 119.471 600.661C120.196 599.345 121.725 598.687 123.175 598.101C120.92 598.175 118.746 596.419 118.505 594.371C118.344 592.323 120.035 590.275 122.289 589.909C120.196 589.397 119.712 586.691 120.679 584.863C121.645 583.107 123.497 581.864 124.785 580.181C128.086 575.793 124.463 571.77 128.972 568.405Z" fill="#1B4B5E"/>
<path d="M139.68 600.297C140.002 602.491 140.324 606.587 140.646 608.708C140.405 608.562 127.684 607.684 127.684 607.684C132.675 612.95 140.083 615.437 147.651 616.242C155.3 616.973 160.453 615.949 166.653 611.853C166.653 611.853 157.957 609.586 157.876 609.366C157.393 606.002 156.508 601.394 156.025 598.029C150.469 597.151 144.592 598.102 139.68 600.589V600.297Z" fill="#FED5B7"/>
<path d="M91.2909 633.43C91.2909 633.43 78.1671 651.57 80.0189 653.764C81.3876 655.373 83.8031 655.739 85.9769 655.885C94.1089 656.471 102.402 655.447 110.131 652.96C115.445 651.277 120.598 648.864 126.154 647.913C130.823 647.181 135.654 647.547 140.405 646.816C144.028 646.304 147.731 645.06 150.227 642.72C151.033 641.915 150.227 640.745 149.1 641.037C146.792 641.671 144.591 642.476 142.498 643.451C145.799 643.012 148.859 641.403 151.113 639.136C151.838 638.404 151.113 637.234 150.066 637.526C147.061 638.209 144.135 639.062 141.29 640.087C144.752 638.77 148.376 637.307 151.194 635.113C152.16 634.381 151.355 633.065 150.227 633.357L140.485 635.99C139.922 636.137 139.277 636.283 138.633 635.844C138.07 635.332 137.909 634.528 138.231 633.796C138.875 632.553 140.405 632.187 141.773 631.748C143.33 631.212 144.806 630.554 146.202 629.773C147.087 629.261 146.765 628.018 145.719 627.872C143.142 627.652 140.485 627.945 138.07 628.822C134.044 630.285 130.904 633.211 127.2 635.259C119.551 639.501 112.386 638.039 103.529 638.404C103.61 638.404 91.2909 633.43 91.2909 633.43Z" fill="#FED5B7"/>
<path d="M203.286 701.234C211.257 704.233 219.631 706.208 228.085 707.159C228.246 705.257 230.339 703.868 232.352 703.575C234.445 703.282 236.539 703.794 238.552 704.38C240.564 704.892 242.658 705.477 244.751 705.184C247.328 704.892 249.421 703.356 251.836 702.624C256.828 701.015 262.223 702.77 267.134 704.453C268.181 704.818 269.389 705.842 268.664 706.574C268.422 706.793 267.939 706.866 267.537 706.94C266.356 707.037 265.202 707.135 264.075 707.232C265.604 706.647 267.537 707.086 268.664 708.183C268.1 709.207 266.651 709.646 265.524 709.134C266.383 709.28 267.242 709.426 268.1 709.573C267.939 710.597 266.49 711.255 265.443 710.816C266.249 710.67 267.215 710.889 267.698 711.474C266.893 712.206 265.685 712.572 264.477 712.352C265.202 712.425 265.926 712.791 266.409 713.303C266.087 714.108 265.041 714.327 264.155 714.4C249.448 716.009 234.687 717.423 219.872 718.642C213.753 719.228 207.473 719.667 201.515 718.277C201.032 712.791 201.354 707.159 202.32 701.746L203.286 701.234Z" fill="#FED5B7"/>
<g opacity="0.4">
<path d="M140.646 601.831C142.981 603.733 145.719 605.415 148.859 605.708C151.999 606.073 155.461 604.537 156.427 601.831C154.817 604.903 152.241 608.268 148.456 608.195C144.914 608.121 142.579 604.976 140.727 602.197L140.646 601.831Z" fill="#9B643E"/>
</g>
<path d="M136.136 572.501C142.174 570.306 148.857 569.429 155.378 569.868C157.552 570.087 160.048 570.453 161.417 571.916C161.981 572.501 162.303 573.232 162.625 574.037C166.087 582.814 164.235 592.908 157.633 600.588C155.539 603.075 152.48 605.488 148.696 605.488C145.556 605.561 142.738 603.879 140.644 602.051C133.881 595.98 132.351 587.276 131.305 579.157C131.197 578.474 131.224 577.816 131.385 577.182C131.949 575.134 133.64 573.452 135.894 572.574L136.136 572.501Z" fill="#FED5B7"/>
<path d="M148.457 570.454C146.927 569.869 145.075 570.893 144.27 572.283C143.465 573.673 143.545 575.282 143.545 576.818C143.545 578.354 143.465 579.963 142.499 581.279C141.21 583.108 138.634 583.766 136.541 584.79C134.447 585.814 132.434 588.082 133.562 589.983C133.884 590.642 134.447 591.081 134.85 591.666C136.057 593.567 134.689 595.908 133.4 597.737C131.307 597.298 130.582 595.103 130.26 593.202C129.294 587.716 129.294 582.157 130.18 576.598C130.421 575.062 130.824 573.307 132.032 572.21C133.159 571.259 134.769 570.893 136.299 570.6C139.681 569.869 143.062 569.162 146.444 568.479C150.55 567.602 154.737 566.724 158.843 567.382C162.949 568.114 166.975 570.674 167.7 574.404C168.102 576.306 167.619 578.207 167.378 580.109C166.894 584.644 167.7 589.179 168.585 593.641C165.526 594.153 162.305 591.885 161.983 589.106C161.661 586.619 163.191 583.913 161.581 581.865C160.051 579.963 156.106 579.963 155.381 577.622C154.978 576.306 155.864 574.697 154.978 573.599C154.495 573.087 153.851 572.868 153.127 572.649C151.355 572.063 150.309 570.966 148.457 570.381V570.454Z" fill="#1B4B5E"/>
<path d="M155.78 564.967C161.175 565.04 166.328 567.746 169.307 571.769C170.112 572.72 170.756 573.817 171.239 574.914C171.722 576.085 171.964 577.328 172.205 578.571C172.366 579.888 172.527 581.205 173.091 582.448C173.735 583.691 174.862 584.569 176.151 585.227C176.875 585.593 177.68 585.959 178.324 586.398C179.022 586.788 179.613 587.275 180.096 587.861C181.142 589.031 181.787 590.494 181.948 591.957C181.948 592.396 182.672 592.396 182.592 591.957C182.511 590.64 182.028 589.25 181.223 588.153C180.418 586.983 179.291 586.105 177.922 585.447C176.634 584.789 175.184 584.203 174.299 583.033C173.413 581.936 173.172 580.473 172.93 579.157C172.769 577.84 172.608 576.597 172.125 575.353C171.695 574.183 171.105 573.061 170.354 571.989C168.904 569.867 166.891 568.112 164.557 566.795C162.222 565.406 159.565 564.601 156.827 564.382C156.451 564.382 156.103 564.382 155.78 564.382C155.378 564.309 155.378 564.967 155.78 564.967Z" fill="#1B4B5E"/>
<path d="M130.503 585.888C129.215 585.814 127.846 585.888 126.719 586.619C125.591 587.277 124.706 588.74 125.028 590.203C125.43 592.397 128.007 592.982 130.1 592.909C130.503 590.715 130.664 588.521 130.422 586.253L130.503 585.888Z" fill="#FED5B7"/>
<path d="M141.129 565.185C135.251 564.454 129.052 566.209 124.784 569.94C123.657 570.964 122.53 572.061 122.369 573.524C122.369 574.255 122.61 575.06 122.61 575.791C122.718 576.523 122.637 577.254 122.369 577.986C121.322 580.838 118.585 582.667 116.813 585.154C116.008 586.324 115.445 587.714 115.525 589.25C115.525 590.566 116.169 591.81 117.377 592.614C117.699 592.907 118.021 592.322 117.699 592.102C116.733 591.444 116.25 590.347 116.169 589.25C116.089 588.006 116.491 586.836 117.216 585.812C118.746 583.398 121.322 581.643 122.61 579.01C122.933 578.424 123.174 577.766 123.255 577.035C123.416 576.303 123.335 575.572 123.174 574.84C123.094 574.109 123.013 573.378 123.335 572.719C123.577 572.061 124.06 571.549 124.543 571.037C126.475 569.135 128.891 567.745 131.548 566.795C134.527 565.771 137.828 565.405 140.968 565.844C141.37 565.844 141.612 565.259 141.129 565.185Z" fill="#1B4B5E"/>
<path d="M138.632 640.817C141.799 639.842 144.939 638.842 148.052 637.818C148.535 637.672 148.294 637.087 147.891 637.233C144.724 638.208 141.557 639.208 138.39 640.232C137.988 640.378 138.229 640.964 138.632 640.817Z" fill="#9B643E"/>
<path d="M140.726 643.011C143.624 642.572 146.469 641.865 149.26 640.889C149.663 640.816 149.502 640.158 149.019 640.304C146.281 641.231 143.436 641.913 140.484 642.352C140.081 642.425 140.242 643.011 140.726 643.011Z" fill="#9B643E"/>
<path d="M136.298 637.015C136.942 639.648 138.15 642.208 139.841 644.549C140.082 644.841 140.646 644.549 140.404 644.183C138.794 641.915 137.586 639.429 136.942 636.868C136.862 636.43 136.217 636.576 136.298 637.015Z" fill="#9B643E"/>
<path d="M182.755 648.57C180.259 645.206 180.178 640.744 177.441 637.526C176.474 636.282 175.106 635.331 173.978 634.234C171.563 631.894 170.597 628.163 167.537 626.554C163.431 624.287 153.528 621.58 153.125 622.092C152.159 623.336 163.834 628.748 163.834 628.748C159.244 628.748 153.93 626.115 149.583 626.042C148.375 626.042 147.892 627.505 148.939 628.09C150.951 629.187 158.842 632.113 161.177 632.406L146.604 628.09C146.04 628.017 145.637 628.822 145.798 629.334C146.201 630.796 154.413 634.38 159.244 635.331C155.058 635.112 145.557 634.38 145.396 634.6C145.235 635.185 145.959 635.624 146.523 635.77C150.549 636.867 155.541 638.403 159.647 639.208C163.27 639.939 166.571 641.695 169.792 643.377C170.194 643.596 170.597 643.816 170.838 644.182C171.08 644.547 171.16 644.986 171.241 645.425C171.885 651.203 173.415 656.982 175.75 662.467C176.474 664.077 177.28 665.759 178.648 667.002C179.776 667.953 181.547 668.611 182.916 667.88C183.56 667.587 183.962 667.002 184.284 666.417C187.907 660.785 187.344 653.105 182.835 647.912L182.755 648.57Z" fill="#FED5B7"/>
<path d="M129.211 679.656C137.907 675.341 147.327 672.196 157.069 670.367C157.633 670.221 158.357 670.148 158.84 670.367C159.404 670.66 159.726 671.172 159.967 671.684C161.954 675.39 163.94 679.12 165.926 682.874C166.248 683.606 166.65 684.337 167.294 684.849C167.938 685.435 168.824 685.727 169.629 686.093C185.41 693.48 189.436 697.137 209.242 702.184C209.323 708.328 206.585 712.498 204.331 718.349C204.17 718.861 203.928 719.373 203.526 719.739C202.962 720.178 202.157 720.251 201.352 720.251C193.703 720.616 186.054 719.666 178.727 717.544C174.943 716.447 171.24 715.058 167.294 715.058C164.718 715.058 162.222 715.716 159.726 716.155C154.654 717.106 149.42 717.544 144.267 716.813C139.195 716.008 136.699 714.984 133.237 711.474C131.868 710.084 128.889 704.086 128.647 702.257C126.393 685.435 128.003 685.215 127.037 681.558L129.211 679.656Z" fill="black"/>
<path d="M158.841 672.414C158.895 672.658 158.975 672.926 159.083 673.219C161.176 680.753 163.511 688.433 168.583 694.65C173.817 701.087 182.834 705.768 191.45 704.012C193.704 703.5 195.958 702.623 197.569 701.087C199.179 699.551 200.226 697.576 200.87 695.528C201.836 692.821 202.238 689.969 202.238 687.116C202.238 684.483 201.836 681.85 201.836 679.144C201.836 675.121 202.722 671.098 203.205 667.075C204.493 657.127 203.607 646.96 200.548 637.306C199.34 633.356 197.488 629.187 193.704 627.066C190.081 624.944 185.008 625.237 181.627 627.651C178.487 629.991 177.118 633.722 176.071 637.232C173.092 647.18 171.401 657.493 171.24 667.806C166.41 668.099 161.74 668.977 157.15 670.366L158.841 672.414Z" fill="black"/>
<path d="M193.624 698.089C195.798 690.628 196.04 683.387 198.213 675.927C190.806 673.952 184.526 674.317 177.682 677.463C177.682 677.463 177.682 686.313 177.199 694.139C182.567 695.797 188.042 697.114 193.624 698.089Z" fill="#FED5B7"/>
<path d="M143.062 591.153C143.062 592.031 142.418 592.689 141.613 592.689C140.888 592.689 140.244 592.031 140.244 591.153C140.244 590.349 140.888 589.617 141.613 589.617C142.418 589.617 143.062 590.349 143.062 591.153Z" fill="black"/>
<path d="M158.2 591.08C158.2 591.958 157.556 592.616 156.832 592.616C156.027 592.616 155.463 591.958 155.463 591.08C155.463 590.275 156.027 589.544 156.832 589.544C157.556 589.544 158.2 590.275 158.2 591.08Z" fill="black"/>
<path d="M157.314 637.525C159.166 634.673 161.421 632.039 163.917 629.699C164.668 629.065 165.446 628.431 166.252 627.797C166.574 627.504 166.091 627.066 165.768 627.358C162.95 629.553 160.535 632.039 158.442 634.819C157.851 635.599 157.288 636.379 156.751 637.159C156.509 637.525 157.153 637.818 157.314 637.525Z" fill="#9B643E"/>
<path d="M171.161 643.888C171.644 643.352 172.127 642.815 172.61 642.279C172.69 642.133 172.771 641.913 172.61 641.84C172.449 641.694 172.207 641.694 172.127 641.84C171.644 642.377 171.161 642.913 170.678 643.449C170.597 643.522 170.597 643.742 170.678 643.888C170.839 643.961 171.08 643.961 171.161 643.888Z" fill="#9B643E"/>
<path d="M264.075 706.72C265.364 707.159 266.813 707.159 268.101 706.793C268.504 706.647 268.343 706.062 267.94 706.208C266.732 706.574 265.444 706.501 264.236 706.135C264.075 706.062 263.914 706.135 263.834 706.354C263.753 706.501 263.914 706.647 264.075 706.72Z" fill="#9B643E"/>
<path d="M264.157 709.278C265.445 709.278 266.761 709.181 268.102 708.986C268.263 708.986 268.425 708.766 268.344 708.62C268.263 708.4 268.102 708.327 267.941 708.4C266.653 708.547 265.392 708.62 264.157 708.62C263.674 708.62 263.674 709.278 264.157 709.278Z" fill="#9B643E"/>
<path d="M263.433 711.253C264.614 711.253 265.794 711.253 266.975 711.253C267.378 711.253 267.378 710.668 266.975 710.668C265.794 710.668 264.614 710.668 263.433 710.668C262.95 710.668 262.95 711.253 263.433 711.253Z" fill="#9B643E"/>
<path d="M262.224 712.792C263.351 713.304 264.559 713.303 265.686 712.865C265.928 712.791 265.928 712.572 265.847 712.426C265.767 712.279 265.525 712.206 265.364 712.279C264.478 712.645 263.432 712.645 262.546 712.279C262.385 712.206 262.224 712.206 262.063 712.353C261.982 712.499 262.063 712.718 262.224 712.792Z" fill="#9B643E"/>
<path d="M264.479 705.037C262.95 707.67 261.742 710.523 260.937 713.449C260.856 713.814 261.5 714.034 261.581 713.595C262.386 710.742 263.513 707.963 265.043 705.33C265.284 704.964 264.64 704.671 264.479 705.037Z" fill="#9B643E"/>
<path d="M227.437 711.034C227.598 710.522 228.323 710.156 228.886 710.229C229.53 710.375 230.094 710.961 229.933 711.546C229.933 711.692 230.013 711.838 230.174 711.911C230.335 711.985 230.577 711.838 230.657 711.692C230.738 710.814 230.174 709.79 229.128 709.644C228.081 709.425 227.034 710.01 226.793 710.887C226.632 711.253 227.356 711.473 227.437 711.034Z" fill="#9B643E"/>
<path d="M150.065 591.153C150.44 593.153 150.816 595.128 151.192 597.078C151.353 596.981 151.514 596.883 151.675 596.785C150.87 596.395 150.038 596.03 149.179 595.688C148.776 595.542 148.454 596.054 148.857 596.2C149.662 596.59 150.494 596.956 151.353 597.297C151.594 597.444 151.916 597.224 151.836 596.932C151.46 594.933 151.111 592.958 150.789 591.007C150.709 590.568 150.065 590.715 150.065 591.153Z" fill="#9B643E"/>
<path d="M149.744 628.969C153.179 630.09 156.588 631.187 159.969 632.26C160.372 632.407 160.533 631.821 160.13 631.675C156.749 630.554 153.367 629.456 149.985 628.384C149.502 628.237 149.341 628.823 149.744 628.969Z" fill="#9B643E"/>
<path d="M126.956 588.154C127.814 588.69 128.646 589.227 129.452 589.763C129.613 589.836 129.854 589.763 129.935 589.617C130.015 589.47 129.935 589.324 129.774 589.178C128.969 588.642 128.163 588.105 127.358 587.569C127.197 587.496 126.956 587.569 126.875 587.715C126.795 587.861 126.795 588.081 126.956 588.154Z" fill="#9B643E"/>
<path d="M127.44 590.348C128.084 589.69 128.809 589.251 129.694 589.031C129.936 589.031 130.016 588.812 129.936 588.666C129.936 588.519 129.694 588.446 129.533 588.446C128.567 588.666 127.601 589.178 126.957 589.909C126.796 589.982 126.796 590.202 126.957 590.348C127.118 590.421 127.359 590.421 127.44 590.348Z" fill="#9B643E"/>
<path d="M145.072 584.278C144.831 584.863 144.75 585.521 144.831 586.179C143.945 585.228 142.496 584.936 141.208 585.082C139.919 585.228 138.712 585.667 137.504 586.179C139.517 584.643 142.254 583.839 144.831 584.058L145.072 584.278Z" fill="#1B4B5E"/>
<path d="M153.205 582.595C153.447 583.18 153.608 583.838 153.447 584.497C154.332 583.546 155.782 583.253 157.07 583.399C158.358 583.546 159.566 584.058 160.773 584.497C158.761 582.961 156.023 582.156 153.447 582.375L153.205 582.595Z" fill="#1B4B5E"/>
<path d="M146.282 597.59C146.926 598.467 148.053 598.906 149.18 598.76C149.341 598.687 149.422 598.467 149.422 598.321C149.314 598.175 149.153 598.102 148.939 598.102C148.778 598.102 148.778 598.175 148.697 598.175C148.643 598.175 148.59 598.15 148.536 598.102C148.294 598.102 148.214 598.102 148.133 598.028C148.08 598.028 148.026 598.028 147.972 598.028C147.731 597.955 147.65 597.882 147.57 597.809C147.516 597.809 147.462 597.785 147.409 597.736C147.194 597.59 147.033 597.443 146.926 597.297C146.845 597.151 146.604 597.078 146.443 597.151C146.282 597.297 146.201 597.443 146.282 597.59Z" fill="#9B643E"/>
<path d="M145.076 565.332C146.686 566.136 147.572 567.892 147.33 569.574C147.33 569.72 147.491 569.867 147.652 569.867C147.894 569.867 147.974 569.72 147.974 569.574C148.296 567.672 147.169 565.698 145.398 564.747C144.995 564.527 144.673 565.112 145.076 565.332Z" fill="#091418"/>
<path d="M150.144 569.063C152.478 569.355 155.135 570.306 156.343 572.354C156.612 572.842 156.773 573.354 156.826 573.89C156.826 574.621 156.746 575.28 156.826 576.011C156.907 576.596 157.229 577.181 157.712 577.62C158.195 577.986 158.759 578.205 159.322 578.425C160.53 578.791 161.818 579.083 162.784 579.815C163.75 580.546 164.475 581.57 164.878 582.667C165.039 583.204 165.119 583.764 165.119 584.349C165.039 584.935 164.878 585.447 164.717 586.032C164.556 586.617 164.395 587.275 164.636 587.86C164.797 588.519 165.361 588.884 166.085 589.104C166.73 589.25 167.374 589.396 167.857 589.835C168.34 590.274 168.662 590.713 168.903 591.225C169.306 592.322 169.306 593.492 168.581 594.443C168.259 594.809 168.903 595.102 169.145 594.736C170.514 592.98 169.87 590.274 167.937 589.104C167.374 588.738 166.73 588.665 166.085 588.445C165.361 588.153 165.119 587.568 165.28 586.909C165.361 586.324 165.602 585.739 165.683 585.081C165.79 584.496 165.79 583.886 165.683 583.252C165.522 582.082 164.878 580.912 164.073 580.034C163.187 579.083 162.06 578.571 160.771 578.205C159.644 577.84 158.114 577.547 157.631 576.45C157.39 575.719 157.47 574.987 157.47 574.256C157.47 573.597 157.39 573.012 157.148 572.427C156.021 569.94 152.881 568.77 150.144 568.477C149.66 568.404 149.66 569.063 150.144 569.063Z" fill="#091418"/>
<path d="M162.546 575.134C163.995 575.938 165.364 576.743 166.41 577.913C166.893 578.498 167.215 579.084 167.376 579.742C167.618 580.546 167.457 581.351 167.296 582.156C167.135 582.96 166.974 583.838 167.296 584.643C167.537 585.301 168.101 585.74 168.665 586.179C169.309 586.617 169.953 586.91 170.516 587.422C171.08 587.934 171.322 588.592 171.483 589.324C171.805 591.006 171.402 592.688 171.966 594.371C172.046 594.736 172.771 594.59 172.61 594.151C172.127 592.688 172.368 591.152 172.207 589.616C172.127 588.885 171.966 588.153 171.483 587.568C171.08 586.91 170.436 586.471 169.711 586.105C169.148 585.74 168.504 585.374 168.101 584.789C167.618 583.984 167.779 583.107 167.94 582.302C168.101 581.497 168.262 580.693 168.101 579.815C168.02 579.157 167.618 578.425 167.215 577.913C166.088 576.45 164.478 575.5 162.948 574.622C162.546 574.402 162.223 574.914 162.546 575.134Z" fill="#091418"/>
<path d="M140.647 572.429C140.808 574.184 140.084 575.939 138.876 577.256C138.232 577.914 137.507 578.353 136.622 578.719C135.897 579.085 135.092 579.45 134.367 579.816C133.723 580.182 133.079 580.621 132.677 581.279C132.193 582.01 132.274 582.888 132.515 583.693C132.757 584.424 133.16 585.375 132.596 586.106C132.274 586.472 131.871 586.765 131.469 587.057C131.147 587.35 130.905 587.716 130.744 588.154C130.1 590.422 132.354 592.177 132.596 594.298C132.677 594.518 132.918 594.591 133.079 594.518C133.24 594.518 133.321 594.298 133.321 594.152C132.999 592.25 131.147 590.714 131.388 588.666C131.388 588.228 131.63 587.862 131.952 587.496C132.274 587.204 132.677 586.984 132.999 586.618C133.643 585.887 133.643 585.082 133.401 584.205C133.16 583.4 132.838 582.596 133.16 581.791C133.482 581.133 134.126 580.694 134.77 580.328C135.495 579.962 136.219 579.67 137.024 579.304C137.829 578.938 138.554 578.426 139.198 577.841C140.647 576.378 141.453 574.403 141.292 572.429C141.292 572.063 140.567 572.063 140.647 572.429Z" fill="#091418"/>
<path d="M138.232 568.845C138.286 569.576 138.313 570.307 138.313 571.039C138.313 571.624 138.313 572.282 137.91 572.867C137.347 573.745 136.22 574.257 135.173 574.623C133.079 575.208 130.1 575.647 129.698 578.061C129.537 579.012 129.778 580.036 130.825 580.548C131.228 580.694 131.55 580.182 131.147 579.962C130.342 579.597 130.181 578.719 130.422 577.988C130.664 576.964 131.63 576.378 132.596 576.013C134.609 575.208 137.347 575.135 138.554 573.16C138.957 572.575 139.038 571.917 139.038 571.185C139.038 570.454 138.957 569.649 138.957 568.845C138.957 568.479 138.232 568.479 138.232 568.845Z" fill="#091418"/>
<path d="M134.123 567.6C132.996 568.039 131.788 568.551 131.144 569.502C130.58 570.379 130.5 571.55 131.225 572.354C131.547 572.647 132.03 572.208 131.708 571.915C131.144 571.257 131.386 570.306 131.869 569.648C132.513 568.916 133.559 568.478 134.445 568.112C134.606 568.039 134.687 567.819 134.606 567.673C134.445 567.527 134.284 567.527 134.123 567.6Z" fill="#091418"/>
<path d="M126.395 580.328C125.268 580.84 125.268 582.449 126.314 582.961C126.717 583.18 127.039 582.668 126.636 582.449C126.556 582.376 126.475 582.302 126.475 582.302C126.395 582.229 126.314 582.156 126.314 582.083C126.234 582.01 126.234 581.937 126.234 581.864C126.234 581.717 126.234 581.717 126.234 581.644C126.234 581.498 126.234 581.498 126.234 581.425C126.287 581.376 126.314 581.327 126.314 581.278C126.395 581.132 126.395 581.132 126.475 581.059C126.636 580.913 126.636 580.913 126.717 580.913C126.878 580.84 126.958 580.62 126.878 580.474C126.717 580.328 126.556 580.254 126.395 580.328Z" fill="#091418"/>
<path d="M122.611 595.687C121.484 597.15 122.45 599.417 124.302 599.856C124.704 600.003 124.946 599.417 124.463 599.271C123.014 598.905 122.369 597.15 123.255 595.98C123.336 595.833 123.255 595.687 123.094 595.614C122.933 595.468 122.772 595.541 122.611 595.687Z" fill="#091418"/>
<path d="M128.085 596.639C127.199 597.443 127.682 598.833 128.729 599.272C129.051 599.418 129.4 599.443 129.776 599.345C129.937 599.345 130.017 599.126 130.017 598.979C129.964 598.833 129.803 598.76 129.534 598.76C129.212 598.76 129.132 598.76 129.051 598.687C128.81 598.541 128.729 598.541 128.729 598.467C128.568 598.321 128.568 598.248 128.488 598.175C128.407 598.029 128.407 597.955 128.327 597.882C128.327 597.834 128.327 597.785 128.327 597.736C128.327 597.443 128.327 597.37 128.407 597.297C128.649 597.005 128.649 596.785 128.568 596.639C128.407 596.566 128.165 596.566 128.085 596.639Z" fill="#091418"/>
<path d="M164.882 596.125C165.285 596.271 165.687 596.637 165.848 597.076C165.929 597.076 165.929 597.076 165.929 597.149C165.982 597.198 166.009 597.271 166.009 597.369C166.063 597.466 166.09 597.564 166.09 597.661C166.09 597.881 166.09 598.1 166.009 598.319C165.848 598.685 166.492 598.905 166.653 598.466C167.056 597.295 166.331 595.979 165.043 595.54C164.882 595.467 164.721 595.613 164.641 595.759C164.56 595.906 164.721 596.052 164.882 596.125Z" fill="#091418"/>
<path d="M233.719 565.845H209.967C205.7 565.845 202.318 568.99 202.318 572.793V582.009C202.318 585.813 205.7 588.958 209.967 588.958H211.497L211.255 597.296L216.569 588.958H233.719C237.906 588.958 241.287 585.813 241.287 582.009V572.793C241.287 568.99 237.906 565.845 233.719 565.845Z" fill="#EFEFEF"/>
<path d="M176.475 542H200.146C204.414 542 207.795 545.072 207.795 548.875V558.092C207.795 561.895 204.414 565.04 200.146 565.04H198.616L198.858 573.378L193.544 565.04H176.475C172.208 565.04 168.826 561.895 168.826 558.092V548.875C168.826 545.072 172.208 542 176.475 542Z" fill="#EFEFEF"/>
<path d="M181.226 553.411C181.226 554.289 180.501 554.947 179.535 554.947C178.569 554.947 177.764 554.289 177.764 553.411C177.764 552.533 178.569 551.802 179.535 551.802C180.501 551.802 181.226 552.533 181.226 553.411Z" fill="#777777"/>
<path d="M198.859 553.411C198.859 554.289 198.053 554.947 197.087 554.947C196.121 554.947 195.396 554.289 195.396 553.411C195.396 552.533 196.121 551.802 197.087 551.802C198.053 551.802 198.859 552.533 198.859 553.411Z" fill="#777777"/>
<path d="M190.566 553.411C190.566 554.289 189.761 554.947 188.795 554.947C187.829 554.947 187.023 554.289 187.023 553.411C187.023 552.533 187.829 551.802 188.795 551.802C189.761 551.802 190.566 552.533 190.566 553.411Z" fill="#777777"/>
<path d="M214.718 577.473C214.718 578.351 213.993 579.009 213.027 579.009C212.061 579.009 211.256 578.351 211.256 577.473C211.256 576.596 212.061 575.864 213.027 575.864C213.993 575.864 214.718 576.596 214.718 577.473Z" fill="#777777"/>
<path d="M232.351 577.473C232.351 578.351 231.546 579.009 230.579 579.009C229.613 579.009 228.889 578.351 228.889 577.473C228.889 576.596 229.613 575.864 230.579 575.864C231.546 575.864 232.351 576.596 232.351 577.473Z" fill="#777777"/>
<path d="M224.058 577.473C224.058 578.351 223.253 579.009 222.286 579.009C221.32 579.009 220.596 578.351 220.596 577.473C220.596 576.596 221.32 575.864 222.286 575.864C223.253 575.864 224.058 576.596 224.058 577.473Z" fill="#777777"/>
<path d="M81.0645 691.577C81.7891 697.867 84.4461 714.178 84.6876 714.398C88.3913 717.762 95.7181 717.762 98.9387 714.983C99.9853 714.105 102.481 699.33 102.803 693.186C102.803 692.747 102.803 692.235 102.481 691.943C102.24 691.723 101.837 691.65 101.435 691.577C94.6714 690.626 87.6666 689.748 81.0645 691.577Z" fill="#F49D18"/>
<path d="M101.919 691.065C101.597 689.529 99.9862 688.285 98.0539 688.285H86.1378C84.1249 688.285 82.5146 689.529 82.1925 691.065C80.9043 691.503 80.1797 691.942 80.1797 692.454C80.1797 693.844 85.4937 694.941 92.0958 694.941C98.6175 694.941 104.012 693.844 104.012 692.454C104.012 691.942 103.207 691.503 101.919 691.065Z" fill="#F9E7DF"/>
<path d="M84.2068 692.09C88.0715 693.406 92.3388 693.772 96.445 693.187C97.6259 692.992 98.7799 692.724 99.9071 692.382C100.31 692.236 100.149 691.797 99.7461 691.87C95.8814 693.041 91.6946 693.26 87.6689 692.455C86.5417 692.26 85.4414 691.968 84.3678 691.578C84.0458 691.431 83.8847 691.943 84.2068 692.09Z" fill="#B7998D"/>
<path d="M99.2611 689.163C99.2611 689.602 95.96 689.967 91.9342 689.967C87.9085 689.967 84.6074 689.602 84.6074 689.163C84.6074 688.651 87.9085 688.285 91.9342 688.285C95.96 688.285 99.2611 688.651 99.2611 689.163Z" fill="#B7998D"/>
<path d="M81.0664 691.577C81.791 697.867 84.448 714.178 84.6896 714.398C88.3932 717.762 95.72 717.762 98.9406 714.983C99.9873 714.105 102.483 699.33 102.805 693.186C102.805 692.747 102.805 692.235 102.483 691.943C102.242 691.723 101.839 691.65 101.437 691.577C94.6734 690.626 87.6686 689.748 81.0664 691.577Z" fill="#F9E7DF"/>
</g>
</g>
<defs>
<filter id="filter0_d_1138_313" x="48" y="542" width="296" height="267.001" filterUnits="userSpaceOnUse" color-interpolation-filters="sRGB">
<feFlood flood-opacity="0" result="BackgroundImageFix"/>
<feColorMatrix in="SourceAlpha" type="matrix" values="0 0 0 0 0 0 0 0 0 0 0 0 0 0 0 0 0 0 127 0" result="hardAlpha"/>
<feOffset dy="4"/>
<feGaussianBlur stdDeviation="2"/>
<feComposite in2="hardAlpha" operator="out"/>
<feColorMatrix type="matrix" values="0 0 0 0 0 0 0 0 0 0 0 0 0 0 0 0 0 0 0.25 0"/>
<feBlend mode="normal" in2="BackgroundImageFix" result="effect1_dropShadow_1138_313"/>
<feBlend mode="normal" in="SourceGraphic" in2="effect1_dropShadow_1138_313" result="shape"/>
</filter>
<clipPath id="clip0_1138_313">
<rect width="480" height="799" fill="white"/>
</clipPath>
</defs>
</svg>
