<svg version="1.2" xmlns="http://www.w3.org/2000/svg" viewBox="0 0 189 174" width="189" height="174"><style>.a{fill:#c6a54b}.b{fill:#dfeaca}.c{fill:#efcd62}.d{fill:#fff}</style><path class="a" d="m92.7 5.7c13.9-1.4 90.3 111.4 86.8 132.4-3.5 20.9-171.8 27-170 3.4 1.7-23.5 65.8-134.1 83.2-135.8z"/><path class="b" d="m-6 346c0 6.6-5.6 12-12.5 12-6.9 0-12.5-5.4-12.5-12 0-6.6 5.6-12 12.5-12 6.9 0 12.5 5.4 12.5 12z"/><path class="b" d="m-15 373c0 4.4-3.6 8-8 8-4.4 0-8-3.6-8-8 0-4.4 3.6-8 8-8 4.4 0 8 3.6 8 8z"/><path class="c" d="m92 18c11.6-1.2 75.6 93.3 72.7 110.8-3 17.5-143.8 22.6-142.3 2.9 1.4-19.7 55-112.2 69.6-113.7z"/><path class="a" d="m108 50l-19 4 6 54 13-2zm-3 64.5c-4.7 0-8.5 3.8-8.5 8.5 0 4.7 3.8 8.5 8.5 8.5 4.7 0 8.5-3.8 8.5-8.5 0-4.7-3.8-8.5-8.5-8.5z"/><path class="d" d="m99 48l-19 4 6 54 13-2zm-3 64.5c-4.7 0-8.5 3.8-8.5 8.5 0 4.7 3.8 8.5 8.5 8.5 4.7 0 8.5-3.8 8.5-8.5 0-4.7-3.8-8.5-8.5-8.5z"/></svg>