<svg version="1.2" xmlns="http://www.w3.org/2000/svg" viewBox="0 0 179 178" width="179" height="178"><style>.a{fill:#a8ddc9}.b{fill:#56a9b7}</style><path class="a" d="m93.8 124.5c14 14.9 48.6 10.2 60.1 0.6 13.4-11.2-2.7-41.8-17.6-49.4 4.8-3.9 7.9-9.9 7.9-16.6 0-11.8-9.6-21.4-21.4-21.4-11.9 0-21.4 9.6-21.4 21.4 0 6.7 3.1 12.7 7.9 16.6-15 7.6-31.8 31.5-15.5 48.8z"/><path class="b" d="m53.6 143.3c16.5 17.4 56.9 12 70.4 0.7 15.7-13.1-3.1-49-20.6-57.8 5.6-4.6 9.2-11.7 9.2-19.5 0-13.9-11.2-25.1-25.1-25.1-13.8 0-25 11.2-25 25.1 0 7.8 3.6 14.9 9.2 19.5-17.5 8.8-37.2 36.8-18.1 57.1z"/><path class="b" d="m39.7 23.3l11.3 0.7-1.3 15.3 10.6 1.4-1.3 9.3-9.3 0.7-1.7 12.3-13-2 0.7-11-10.7-1 1-12 12 1z"/></svg>