<svg width="79" height="79" viewBox="0 0 79 79" fill="none" xmlns="http://www.w3.org/2000/svg">
<g filter="url(#filter0_d_125_267)">
<path d="M22.2191 33.6342C26.4753 33.6342 29.9216 30.1879 29.9216 25.9317C29.9216 21.6756 26.4753 18.2292 22.2191 18.2292C17.963 18.2292 14.5166 21.6756 14.5166 25.9317C14.5166 30.1879 17.963 33.6342 22.2191 33.6342ZM31.8966 38.8581C31.0079 37.8805 30.3166 36.735 29.8624 35.471C28.7663 35.076 27.5911 34.8489 26.3666 34.8489H18.0716C12.4528 34.8489 7.90039 39.4111 7.90039 45.0201V52.0807C11.9096 53.7299 16.857 54.6976 22.2191 54.6976C22.3574 54.6976 22.4956 54.6976 22.6339 54.6976V51.1031C22.6339 45.2867 26.5543 40.369 31.8966 38.8581ZM56.7816 33.6342C61.0378 33.6342 64.4841 30.1879 64.4841 25.9317C64.4841 21.6756 61.0378 18.2292 56.7816 18.2292C52.5255 18.2292 49.0791 21.6756 49.0791 25.9317C49.0791 30.1879 52.5255 33.6342 56.7816 33.6342ZM60.9291 34.8489H52.6341C51.4096 34.8489 50.2345 35.076 49.1384 35.471C48.6841 36.735 47.9929 37.8805 47.1041 38.8581C52.4465 40.369 56.3669 45.2867 56.3669 51.1031V54.6976C56.5051 54.6976 56.6434 54.6976 56.7816 54.6976C62.1438 54.6976 67.0911 53.7299 71.1004 52.0807V45.0201C71.1004 39.4111 66.548 34.8489 60.9291 34.8489ZM32.6076 35.4414C33.3384 36.9127 34.5333 38.1175 36.0046 38.868C36.5774 39.1544 37.1896 39.3815 37.8216 39.5197C38.3648 39.6382 38.9276 39.7074 39.5004 39.7074C40.0731 39.7074 40.636 39.6382 41.1791 39.5197C41.8111 39.3815 42.4234 39.1544 42.9961 38.868C44.4675 38.1175 45.6624 36.9127 46.3931 35.4414C46.6795 34.8686 46.8968 34.2564 47.035 33.6145C47.1436 33.0911 47.2029 32.5579 47.2029 32.0049C47.2029 27.7487 43.7565 24.3024 39.5004 24.3024C35.2443 24.3024 31.7979 27.7487 31.7979 32.0049C31.7979 32.5579 31.8571 33.0911 31.9658 33.6145C32.104 34.2564 32.3213 34.8686 32.6076 35.4414ZM43.6479 40.9319H35.3529C29.734 40.9319 25.1816 45.4842 25.1816 51.1031V58.1539C29.1909 59.803 34.1383 60.7707 39.5004 60.7707C44.8625 60.7707 49.8099 59.803 53.8191 58.1539V51.1031C53.8191 45.4842 49.2668 40.9319 43.6479 40.9319Z" fill="white"/>
</g>
<defs>
<filter id="filter0_d_125_267" x="-4" y="0" width="87" height="87" filterUnits="userSpaceOnUse" color-interpolation-filters="sRGB">
<feFlood flood-opacity="0" result="BackgroundImageFix"/>
<feColorMatrix in="SourceAlpha" type="matrix" values="0 0 0 0 0 0 0 0 0 0 0 0 0 0 0 0 0 0 127 0" result="hardAlpha"/>
<feOffset dy="4"/>
<feGaussianBlur stdDeviation="2"/>
<feColorMatrix type="matrix" values="0 0 0 0 0 0 0 0 0 0 0 0 0 0 0 0 0 0 0.25 0"/>
<feBlend mode="normal" in2="BackgroundImageFix" result="effect1_dropShadow_125_267"/>
<feBlend mode="normal" in="SourceGraphic" in2="effect1_dropShadow_125_267" result="shape"/>
</filter>
</defs>
</svg>
