<svg xmlns="http://www.w3.org/2000/svg" fill="none" viewBox="3329.51 377.82 313.71 757.32">
<g filter="url(#filter0_d_43_309)">
<path d="M3329.51 936.71C3345.17 957.578 3363.03 979.668 3387.58 985.12C3399.46 987.752 3411.96 986.154 3423.66 989.538C3430.53 991.512 3436.78 995.084 3443.2 998.28C3463.18 1008.34 3485.44 1015.39 3507.26 1011.63C3528.91 1007.96 3548.09 994.144 3563.14 977.13C3572.29 966.696 3580.74 954.664 3593.15 949.118C3576.37 939.091 3559.62 929.096 3542.9 919.132C3532.96 913.304 3523.1 907.382 3512.81 902.212C3489.4 890.556 3463.97 883.13 3438.18 882.284C3412.4 881.532 3386.18 887.736 3364 901.836L3329.51 936.71Z" fill="#11323D"/>
<path d="M3487.9 384.084C3485.88 383.426 3483.85 382.58 3481.92 381.64C3470.57 375.906 3456.49 376.658 3445.66 383.708C3443.2 385.306 3440.82 387.28 3438.18 388.69C3435.19 390.382 3431.94 391.322 3428.86 392.638C3418.12 397.432 3409.76 407.96 3407.12 420.086C3404.04 433.998 3407.56 450.636 3398.58 461.352C3394.54 466.146 3388.55 468.684 3383.45 472.256C3369.19 482.408 3362.06 501.678 3363.38 519.914C3364 529.22 3366.55 538.902 3363.21 547.456C3361.71 551.31 3359.25 554.506 3357.14 557.984C3347.28 574.34 3347.55 596.994 3357.84 613.068C3354.85 607.24 3357.14 599.062 3362.68 596.054C3368.14 592.952 3375.79 595.772 3378.43 601.788C3379.84 604.984 3379.84 608.65 3380.02 612.222C3380.63 626.51 3383.89 641.08 3391.46 652.924C3399.02 664.768 3411.43 673.604 3424.9 674.074C3421.9 664.768 3419 654.334 3422.96 645.498C3426.39 637.696 3434.49 633.372 3442.32 631.21C3450.24 629.142 3458.51 628.672 3466.17 625.758C3482.18 619.836 3493.89 602.54 3494.33 584.398C3494.5 577.536 3493.18 570.768 3493.09 563.812C3493.01 556.95 3494.5 549.618 3499.08 544.824C3502.6 541.252 3507.35 539.654 3511.84 537.586C3522.57 532.51 3532.52 523.016 3534.19 510.608C3536.48 493.688 3523.19 478.46 3522.93 461.352C3522.75 452.986 3525.74 444.808 3526.62 436.442C3528.82 416.42 3517.03 395.552 3499.43 388.22C3498.64 387.938 3492.21 385.682 3487.9 384.084Z" fill="#EC8117"/>
<path d="M3483.33 504.874C3482.98 507.506 3484.74 509.856 3487.2 510.232C3489.66 510.514 3491.95 508.634 3492.21 506.002C3492.57 503.37 3490.81 500.926 3488.34 500.644C3485.88 500.268 3483.59 502.148 3483.33 504.874Z" fill="white"/>
<path d="M3564.64 904.468C3568.42 935.488 3583.73 1047.72 3590.33 1078.27C3584.61 1080.62 3578.63 1082.13 3572.56 1082.79C3570.53 1082.97 3568.25 1083.07 3566.49 1081.85C3564.99 1080.81 3564.11 1079.12 3563.23 1077.52C3551.88 1055.53 3540.61 1033.44 3532.96 1009.75C3525.39 986.06 3521.52 960.492 3525.57 935.864L3564.64 904.468Z" fill="#FED5B7"/>
<path d="M3426.57 967.542C3411.9 1004.58 3397.24 1041.61 3382.57 1078.65C3373.59 1077.52 3364.71 1074.89 3356.52 1070.94C3360.48 1019.71 3365.23 965.944 3392.42 923.644L3426.57 967.542Z" fill="#FED5B7"/>
<path d="M3523.37 525.93C3551.88 538.338 3574.14 549.806 3576.34 550.088C3576.78 546.986 3569.48 479.87 3567.89 475.64C3566.49 472.068 3564.29 468.966 3562.35 465.676C3556.63 456.088 3553.11 444.996 3552.05 433.716C3551.79 431.272 3554.87 430.332 3555.93 432.4C3558.48 437.382 3560.68 442.552 3562.35 447.91C3561.47 436.63 3561.47 421.12 3562.44 407.678C3562.53 405.704 3565.25 405.61 3565.52 407.584C3566.84 418.112 3568.25 429.956 3569.48 438.322C3569.39 427.888 3570.45 413.224 3572.56 401.004C3573 398.372 3576.52 398.466 3576.87 401.098C3578.28 412.002 3578.98 424.786 3578.81 433.716C3578.72 425.914 3579.33 414.07 3580.74 404.294C3581.09 401.756 3584.53 401.568 3584.97 404.106C3587.25 415.01 3588.57 428.264 3589.01 437.382C3590.51 433.622 3590.16 425.82 3589.8 418.112C3589.63 415.198 3593.59 414.728 3594.12 417.548C3596.49 430.614 3598.6 445.654 3596.58 453.832C3594.65 461.728 3591.74 469.436 3591.3 477.52C3590.77 485.886 3620.43 589.85 3608.28 596.806C3599.4 601.976 3581.01 596.43 3571.41 593.234C3556.28 588.252 3541.41 582.518 3526.8 575.844L3523.37 525.93Z" fill="#FED5B7"/>
<path d="M3487.64 509.574C3496.5 513.146 3505.33 516.718 3514.13 520.29C3517.47 521.7 3521.08 523.204 3522.84 526.494C3525.04 530.442 3523.89 535.424 3523.72 540.03C3522.93 556.95 3535.51 571.238 3538.5 587.876C3541.32 603.668 3535.16 619.554 3531.02 635.064C3527.06 650.01 3524.86 665.52 3524.6 681.03C3524.51 683.662 3524.51 686.482 3523.1 688.644C3521.61 690.9 3519.14 691.934 3516.68 692.686C3490.98 701.052 3463.35 690.994 3442.23 673.134C3442.76 633.748 3433.61 598.31 3419 562.12C3417.42 558.266 3415.74 554.318 3415.83 550.088C3416.01 544.73 3418.91 539.936 3422.17 535.894C3436.86 517.376 3460.01 506.848 3482.62 508.446L3487.64 509.574Z" fill="#EA4335" fill-opacity="0.97"/>
<path d="M3525.83 675.014C3539.56 703.026 3547.21 736.49 3550.03 767.886C3551.53 785.746 3551.26 803.794 3552.67 821.654C3556.1 866.774 3570.53 910.86 3593.94 948.554C3576.96 948.554 3560.94 957.014 3546.95 967.26C3537.71 974.028 3529 981.642 3518.88 986.718C3497.14 997.716 3470.57 995.648 3449.27 983.71C3438.45 977.694 3428.86 969.328 3417.42 965.004C3401.93 959.082 3384.77 961.056 3368.67 957.672C3354.15 954.57 3340.59 946.862 3330.03 935.958C3338.39 931.822 3343.94 923.08 3348.95 914.808C3365.85 887.172 3383.19 858.314 3386.88 825.602C3388.99 807.46 3386.71 789.036 3389.08 770.894C3391.19 754.632 3397 738.84 3406.06 725.492C3413.02 715.152 3421.73 706.222 3428.06 695.318C3432.38 687.892 3435.46 679.62 3439.15 671.724C3439.86 670.22 3440.74 668.622 3442.06 667.87C3444.43 666.46 3447.42 667.776 3449.89 669.092C3473.3 681.312 3501.1 683.474 3525.92 675.108L3525.83 675.014Z" fill="#1B4B5E"/>
<path d="M3417.42 1123.39C3417.06 1125.74 3416.45 1132.98 3415.74 1135.14L3335.93 1122.17L3337.6 1110.42L3417.42 1123.39Z" fill="#ACADAC"/>
<path d="M3384.33 1093.97C3386.27 1097.45 3389.43 1099.89 3392.51 1102.15C3398.15 1106.22 3403.78 1110.33 3409.41 1114.46C3412.58 1116.81 3415.92 1119.35 3417.51 1123.21L3337.6 1110.23C3337.6 1110.23 3338.92 1103.65 3345.17 1096.7C3347.02 1094.63 3348.95 1092.66 3350.8 1090.59C3351.51 1089.74 3352.21 1088.9 3352.74 1087.86C3353.18 1086.92 3353.27 1086.08 3353.09 1085.04C3352.83 1084.01 3353.88 1081.19 3353.79 1080.06C3353.62 1078.27 3355.2 1076.49 3356.43 1075.64C3359.16 1073.95 3354.94 1071.41 3357.84 1070C3358.55 1069.72 3359.43 1069.81 3360.13 1069.91C3369.28 1070.85 3378.61 1071.98 3386.79 1076.21C3387.59 1076.58 3388.47 1077.15 3388.73 1077.99C3388.91 1078.84 3388.11 1080.06 3387.32 1079.59C3388.2 1079.97 3388.03 1081.47 3387.32 1082.03C3386.53 1082.69 3385.39 1082.22 3384.68 1083.07C3383.89 1083.91 3383.36 1085.23 3383.1 1086.36C3382.57 1088.9 3383.1 1091.72 3384.33 1093.97Z" fill="#751A23"/>
<path d="M3380.02 1074.98L3379.05 1074.14C3376.06 1078.09 3373.95 1082.69 3372.89 1087.67C3372.71 1088.8 3372.45 1090.21 3372.63 1091.62C3373.07 1094.44 3375 1096.42 3376.85 1098.3C3377.47 1098.86 3378.08 1099.52 3378.61 1100.18C3382.31 1104.41 3383.63 1111.08 3381.95 1116.63L3383.1 1117C3385.03 1110.99 3383.63 1103.94 3379.58 1099.24C3378.96 1098.58 3378.35 1097.92 3377.73 1097.36C3375.97 1095.48 3374.21 1093.78 3373.86 1091.43C3373.68 1090.21 3373.86 1088.99 3374.12 1087.96C3375.09 1083.26 3377.11 1078.74 3380.02 1074.98Z" fill="white"/>
<path d="M3348.69 1096.51C3348.51 1096.07 3348.31 1095.63 3348.07 1095.19L3347.02 1095.85C3349.66 1100.65 3350.63 1106.57 3349.48 1112.02L3350.71 1112.3C3351.77 1106.94 3351.07 1101.3 3348.69 1096.51Z" fill="white"/>
<path fill-rule="evenodd" clip-rule="evenodd" d="M3367.61 1105.06C3365.15 1105.06 3363.21 1103.56 3361.8 1101.59C3359.34 1102.9 3356.08 1102.43 3354.06 1100.36L3354.94 1099.42C3356.52 1101.02 3359.07 1101.49 3361.1 1100.55C3360.63 1099.8 3360.28 1099.02 3360.04 1098.2C3359.28 1096.13 3359.22 1094.41 3359.87 1093.03C3360.31 1092.09 3361.19 1091.34 3362.24 1091.06C3363.12 1090.87 3363.91 1091.06 3364.53 1091.62C3365.06 1092.19 3365.41 1093 3365.59 1094.07C3365.94 1096.6 3364.79 1099.33 3362.86 1100.93C3364.09 1102.53 3365.76 1103.75 3367.7 1103.75C3369.81 1103.84 3371.92 1102.24 3372.63 1100.08L3373.77 1100.55C3372.89 1103.28 3370.34 1105.16 3367.61 1105.06ZM3362.15 1099.89C3363.74 1098.58 3364.62 1096.32 3364.35 1094.25C3364.24 1093.5 3364.03 1092.97 3363.74 1092.66C3363.3 1092.28 3362.86 1092.28 3362.51 1092.37C3361.8 1092.47 3361.19 1093.03 3360.92 1093.6C3360.45 1094.66 3360.54 1096.04 3361.19 1097.73C3361.3 1098.17 3361.45 1098.58 3361.63 1098.95C3361.8 1099.27 3361.98 1099.58 3362.15 1099.89Z" fill="white"/>
<path d="M3394.98 1099.8C3391.19 1100.74 3387.85 1103.47 3386 1107.04L3387.06 1107.7C3388.82 1104.41 3391.81 1101.96 3395.24 1101.12L3394.98 1099.8Z" fill="white"/>
<path d="M3403.69 1105.72C3399.73 1106.47 3396.03 1109.39 3394.45 1113.34L3395.59 1113.9C3397 1110.33 3400.26 1107.7 3403.87 1107.04L3403.69 1105.72Z" fill="white"/>
<path d="M3375.62 1081.19L3357.84 1074.89L3357.4 1076.21L3375.18 1082.41L3375.62 1081.19Z" fill="white"/>
<path d="M3373.42 1086.92L3354.85 1079.78L3354.41 1081L3372.98 1088.14L3373.42 1086.92Z" fill="white"/>
<path d="M3416.01 1128.28C3396 1125.02 3376.03 1121.76 3356.08 1118.51C3350.39 1117.63 3344.73 1116.72 3339.1 1115.78C3337.87 1115.59 3337.95 1113.62 3339.19 1113.81C3359.13 1117.06 3379.08 1120.29 3399.02 1123.49C3404.72 1124.43 3410.41 1125.37 3416.1 1126.31C3417.24 1126.5 3417.15 1128.47 3416.01 1128.28Z" fill="white"/>
<path d="M3416.71 1131.48C3406.5 1129.85 3396.3 1128.25 3386.09 1126.68C3375.94 1125.05 3365.76 1123.46 3355.55 1121.89C3349.8 1120.95 3344.06 1120.04 3338.31 1119.16C3337.25 1118.98 3337.34 1117.1 3338.48 1117.28C3348.63 1118.85 3358.81 1120.45 3369.02 1122.08C3379.23 1123.64 3389.43 1125.21 3399.64 1126.78C3405.33 1127.72 3411.05 1128.63 3416.8 1129.5C3417.94 1129.69 3417.86 1131.57 3416.71 1131.48Z" fill="white"/>
<path d="M3637.76 1080.53C3638.73 1082.6 3642.52 1088.71 3643.22 1090.87L3572.91 1133.26L3567.37 1122.92L3637.76 1080.53Z" fill="#ACADAC"/>
<path d="M3594.73 1079.21C3598.17 1080.62 3602.13 1080.44 3605.82 1080.15C3612.63 1079.72 3619.43 1079.28 3626.24 1078.84C3630.11 1078.56 3634.24 1078.37 3637.68 1080.34L3567.28 1122.74C3567.28 1122.74 3564.55 1116.72 3565.43 1107.13C3565.69 1104.31 3566.05 1101.49 3566.31 1098.67C3566.4 1097.45 3566.49 1096.32 3566.22 1095.19C3566.05 1094.16 3565.61 1093.41 3564.9 1092.75C3564.11 1092.09 3563.32 1089.18 3562.53 1088.33C3561.47 1087.11 3561.56 1084.57 3562.09 1083.16C3563.32 1079.97 3558.48 1080.72 3560.06 1077.8C3560.41 1077.05 3561.03 1076.58 3561.73 1076.11C3569.48 1070.94 3577.4 1065.68 3586.37 1063.52C3587.17 1063.33 3588.13 1063.23 3588.84 1063.7C3589.54 1064.27 3589.63 1065.68 3588.75 1065.87C3589.63 1065.68 3590.33 1066.9 3590.16 1067.84C3589.89 1068.87 3588.75 1069.25 3588.57 1070.38C3588.49 1071.6 3588.84 1072.92 3589.28 1073.95C3590.33 1076.39 3592.45 1078.27 3594.73 1079.21Z" fill="#751A23"/>
<path d="M3580.3 1067.09H3579.07C3578.98 1072.07 3580.04 1077.15 3582.06 1081.75C3582.5 1082.79 3583.12 1084.1 3584.09 1085.04C3586.11 1086.92 3588.75 1087.2 3591.3 1087.49C3592.09 1087.58 3592.97 1087.67 3593.77 1087.77C3599.13 1088.71 3603.97 1093.03 3605.91 1098.58L3607.05 1098.11C3605.03 1092.09 3599.84 1087.49 3593.94 1086.45C3593.15 1086.36 3592.27 1086.26 3591.39 1086.17C3588.93 1085.89 3586.64 1085.7 3584.97 1084.1C3584.17 1083.26 3583.56 1082.13 3583.12 1081.19C3581.18 1076.77 3580.21 1071.98 3580.3 1067.09Z" fill="white"/>
<path d="M3568.07 1104.59C3567.66 1104.41 3567.25 1104.22 3566.84 1104.03L3566.4 1105.25C3571.24 1107.32 3575.37 1111.36 3577.66 1116.34L3578.81 1115.78C3576.52 1110.89 3572.73 1106.85 3568.07 1104.59Z" fill="white"/>
<path fill-rule="evenodd" clip-rule="evenodd" d="M3587.96 1098.95C3586.02 1100.55 3583.56 1100.65 3581.36 1100.08C3580.13 1102.71 3577.31 1104.41 3574.58 1104.22L3574.67 1102.9C3576.87 1103.09 3579.16 1101.77 3580.13 1099.71C3579.36 1099.39 3578.66 1099.02 3578.01 1098.58C3576.25 1097.45 3575.2 1096.13 3574.85 1094.63C3574.67 1093.6 3574.93 1092.28 3575.64 1091.43C3576.17 1090.78 3576.96 1090.4 3577.75 1090.4C3578.51 1090.46 3579.25 1090.87 3579.95 1091.62C3581.71 1093.41 3582.41 1096.32 3581.8 1098.77C3583.65 1099.24 3585.67 1099.14 3587.25 1097.92C3588.93 1096.51 3589.63 1093.88 3589.01 1091.72L3590.16 1091.34C3591.04 1093.97 3590.07 1097.26 3587.96 1098.95ZM3580.57 1098.39C3581.09 1096.42 3580.48 1094.07 3579.07 1092.56C3578.6 1092.06 3578.13 1091.78 3577.66 1091.72C3577.13 1091.72 3576.78 1092 3576.61 1092.28C3576.17 1092.84 3575.9 1093.69 3576.08 1094.35C3576.31 1095.48 3577.16 1096.51 3578.63 1097.45C3578.98 1097.64 3579.33 1097.83 3579.69 1098.01C3579.98 1098.2 3580.27 1098.33 3580.57 1098.39Z" fill="white"/>
<path d="M3606.44 1076.77C3603.97 1079.97 3602.92 1084.29 3603.53 1088.43L3604.77 1088.14C3604.15 1084.48 3605.21 1080.53 3607.41 1077.62L3606.44 1076.77Z" fill="white"/>
<path d="M3616.73 1075.74C3614 1078.84 3612.86 1083.63 3613.83 1087.77L3614.97 1087.49C3614.09 1083.73 3615.15 1079.5 3617.61 1076.58L3616.73 1075.74Z" fill="white"/>
<path d="M3580.39 1074.89L3562.79 1081.66L3563.23 1082.88L3580.83 1076.11L3580.39 1074.89Z" fill="white"/>
<path d="M3581.97 1080.81L3563.23 1087.39L3563.67 1088.71L3582.33 1082.13L3581.97 1080.81Z" fill="white"/>
<path d="M3639.35 1085.32C3621.81 1095.91 3604.24 1106.51 3586.64 1117.1C3581.65 1120.1 3576.64 1123.11 3571.59 1126.12C3570.62 1126.78 3569.57 1125.18 3570.53 1124.52C3588.13 1113.93 3605.73 1103.34 3623.33 1092.75C3628.32 1089.74 3633.31 1086.73 3638.29 1083.73C3639.35 1083.07 3640.4 1084.67 3639.35 1085.32Z" fill="white"/>
<path d="M3641.81 1087.3C3632.84 1092.75 3623.89 1098.23 3614.97 1103.75C3606 1109.2 3597.05 1114.65 3588.13 1120.1C3583.09 1123.17 3578.04 1126.25 3573 1129.32C3572.03 1129.88 3570.97 1128.38 3572.03 1127.72C3580.95 1122.27 3589.89 1116.81 3598.87 1111.36C3607.79 1105.91 3616.7 1100.46 3625.62 1095.01C3630.67 1091.94 3635.71 1088.83 3640.76 1085.7C3641.72 1085.14 3642.78 1086.73 3641.81 1087.3Z" fill="white"/>
<path d="M3525.04 677.552C3538.68 705.564 3547.21 736.49 3550.03 767.886C3551.53 785.746 3551.26 803.794 3552.67 821.654C3556.1 866.774 3570.53 910.86 3593.94 948.554C3576.96 948.554 3560.94 957.014 3546.95 967.26C3537.71 974.028 3529 981.642 3518.88 986.718C3497.14 997.716 3470.57 995.648 3449.27 983.71C3438.45 977.694 3428.86 969.328 3417.42 965.004C3401.93 959.082 3384.77 961.056 3368.67 957.672C3354.15 954.57 3340.59 946.862 3330.03 935.958C3338.39 931.822 3343.94 923.08 3348.95 914.808C3365.85 887.172 3383.19 858.314 3386.88 825.602C3388.99 807.46 3386.71 789.036 3389.08 770.894C3391.19 754.632 3397 738.84 3406.06 725.492C3413.02 715.152 3421.73 706.222 3428.06 695.318C3432.38 687.892 3435.46 679.62 3439.15 671.724C3439.86 670.22 3440.74 668.622 3442.06 667.87C3444.43 666.46 3447.42 667.776 3449.89 669.092C3473.3 681.312 3501.1 683.474 3525.92 675.108L3525.04 677.552Z" fill="white"/>
<path d="M3465.46 699.642C3465.2 701.898 3466.61 703.872 3468.72 704.154C3470.74 704.436 3472.59 702.838 3472.86 700.676C3473.12 698.42 3471.71 696.446 3469.6 696.164C3467.58 695.882 3465.64 697.48 3465.46 699.642Z" fill="#34A853"/>
<path d="M3513.25 692.498C3512.98 694.66 3514.39 696.634 3516.5 696.916C3518.53 697.198 3520.46 695.694 3520.73 693.438C3520.9 691.276 3519.49 689.208 3517.38 688.926C3515.36 688.738 3513.51 690.242 3513.25 692.498Z" fill="#34A853"/>
<path d="M3489.03 743.51C3488.76 745.766 3490.26 747.74 3492.28 748.022C3494.31 748.304 3496.24 746.706 3496.51 744.544C3496.68 742.288 3495.27 740.314 3493.16 740.032C3491.14 739.75 3489.29 741.348 3489.03 743.51Z" fill="#34A853"/>
<path d="M3522.01 950.51C3521.75 952.672 3523.25 954.74 3525.27 955.022C3527.29 955.304 3529.23 953.706 3529.49 951.45C3529.67 949.288 3528.26 947.314 3526.15 947.032C3524.13 946.75 3522.28 948.348 3522.01 950.51Z" fill="#34A853"/>
<path d="M3441.48 769.512C3441.22 771.674 3442.72 773.742 3444.74 773.93C3446.76 774.212 3448.7 772.708 3448.96 770.452C3449.14 768.29 3447.73 766.222 3445.62 766.034C3443.6 765.752 3441.75 767.256 3441.48 769.512Z" fill="#34A853"/>
<path d="M3522.98 779.512C3522.72 781.674 3524.22 783.742 3526.24 783.93C3528.35 784.212 3530.2 782.708 3530.46 780.452C3530.73 778.29 3529.23 776.316 3527.21 776.034C3525.1 775.752 3523.25 777.256 3522.98 779.512Z" fill="#34A853"/>
<path d="M3528.12 729.534C3527.94 731.696 3529.35 733.67 3531.46 733.952C3533.49 734.234 3535.33 732.636 3535.6 730.474C3535.86 728.312 3534.37 726.244 3532.34 725.962C3530.32 725.774 3528.38 727.278 3528.12 729.534Z" fill="#34A853"/>
<path d="M3479.32 810.588C3479.06 812.75 3480.56 814.724 3482.58 815.006C3484.6 815.288 3486.54 813.784 3486.8 811.528C3487.07 809.366 3485.57 807.298 3483.46 807.016C3481.44 806.828 3479.59 808.332 3479.32 810.588Z" fill="#34A853"/>
<path d="M3466.71 923.588C3466.45 925.75 3467.94 927.724 3469.97 928.006C3471.99 928.288 3473.93 926.784 3474.19 924.528C3474.45 922.366 3472.96 920.298 3470.85 920.016C3468.82 919.828 3466.97 921.332 3466.71 923.588Z" fill="#34A853"/>
<path d="M3483.2 971.588C3482.94 973.75 3484.44 975.724 3486.46 976.006C3488.48 976.288 3490.42 974.784 3490.68 972.528C3490.95 970.366 3489.45 968.298 3487.34 968.016C3485.32 967.828 3483.47 969.332 3483.2 971.588Z" fill="#34A853"/>
<path d="M3538.51 826.588C3538.24 828.75 3539.74 830.724 3541.76 831.006C3543.79 831.288 3545.72 829.784 3545.99 827.528C3546.25 825.366 3544.76 823.298 3542.64 823.016C3540.62 822.828 3538.77 824.332 3538.51 826.588Z" fill="#34A853"/>
<path d="M3348.34 939.588C3348.08 941.75 3349.57 943.724 3351.6 944.006C3353.62 944.288 3355.56 942.784 3355.82 940.528C3356.08 938.366 3354.59 936.298 3352.48 936.016C3350.45 935.828 3348.6 937.332 3348.34 939.588Z" fill="#34A853"/>
<path d="M3463.8 851.588C3463.54 853.75 3465.03 855.724 3467.06 856.006C3469.08 856.288 3471.02 854.784 3471.28 852.528C3471.54 850.366 3470.05 848.298 3467.94 848.016C3465.91 847.828 3464.06 849.332 3463.8 851.588Z" fill="#34A853"/>
<path d="M3511.34 885.604C3511.08 887.766 3512.57 889.74 3514.6 890.022C3516.71 890.304 3518.56 888.706 3518.82 886.544C3519.08 884.382 3517.59 882.314 3515.56 882.032C3513.45 881.75 3511.6 883.348 3511.34 885.604Z" fill="#34A853"/>
<path d="M3400.73 797.51C3400.47 799.672 3401.97 801.74 3403.99 802.022C3406.1 802.21 3407.95 800.706 3408.21 798.45C3408.48 796.288 3406.98 794.314 3404.96 794.032C3402.85 793.75 3401 795.348 3400.73 797.51Z" fill="#34A853"/>
<path d="M3411.39 739.51C3411.21 741.766 3412.62 743.74 3414.73 744.022C3416.76 744.304 3418.61 742.706 3418.87 740.544C3419.13 738.288 3417.64 736.314 3415.61 736.032C3413.59 735.75 3411.65 737.348 3411.39 739.51Z" fill="#34A853"/>
<path d="M3400.73 847.51C3400.47 849.766 3401.97 851.74 3403.99 852.022C3406.01 852.304 3407.95 850.706 3408.21 848.544C3408.39 846.288 3406.98 844.314 3404.87 844.032C3402.85 843.75 3401 845.348 3400.73 847.51Z" fill="#34A853"/>
<path d="M3425.96 885.51C3425.7 887.766 3427.19 889.74 3429.22 890.022C3431.24 890.304 3433.18 888.706 3433.44 886.544C3433.7 884.288 3432.21 882.314 3430.1 882.032C3428.07 881.75 3426.22 883.348 3425.96 885.51Z" fill="#34A853"/>
<path d="M3549.18 895.51C3548.92 897.672 3550.33 899.74 3552.44 900.022C3554.46 900.304 3556.4 898.706 3556.66 896.45C3556.84 894.288 3555.43 892.314 3553.32 892.032C3551.29 891.75 3549.45 893.348 3549.18 895.51Z" fill="#34A853"/>
<path d="M3414.69 956.262C3414.42 958.518 3415.92 960.492 3417.94 960.774C3420.06 961.056 3421.9 959.458 3422.17 957.296C3422.43 955.04 3420.94 953.066 3418.91 952.784C3416.8 952.502 3414.95 954.1 3414.69 956.262Z" fill="#34A853"/>
<path d="M3562.97 931.54C3562.79 933.702 3564.2 935.77 3566.31 936.052C3568.33 936.24 3570.18 934.736 3570.45 932.48C3570.71 930.318 3569.21 928.344 3567.19 928.062C3565.17 927.78 3563.23 929.378 3562.97 931.54Z" fill="#34A853"/>
<path d="M3378.96 911.142C3378.7 913.398 3380.19 915.372 3382.22 915.654C3384.33 915.936 3386.18 914.338 3386.44 912.176C3386.71 909.92 3385.21 907.946 3383.19 907.664C3381.07 907.382 3379.23 908.98 3378.96 911.142Z" fill="#34A853"/>
<path d="M3434.4 535.518C3428.94 533.92 3422.96 535.236 3418.56 539.09C3397.53 557.42 3377.55 577.066 3358.72 597.84C3351.24 606.112 3343.5 615.794 3343.67 627.262C3343.85 638.636 3351.77 648.036 3359.16 656.214C3373.48 671.944 3387.76 687.642 3402.02 703.308C3405.36 707.068 3408.88 710.828 3413.28 713.084C3417.94 715.622 3423.4 716.092 3428.42 717.784C3437.04 720.604 3444.26 726.526 3451.03 733.106C3453.32 735.362 3456.75 732.636 3455.52 729.628C3453.58 725.022 3450.5 720.98 3446.63 718.16L3459.83 732.824C3462.03 735.268 3465.64 732.73 3464.49 729.534C3462.56 724.176 3459.39 719.194 3455.25 715.34C3458.07 719.382 3461.24 723.236 3464.76 726.62C3466.96 728.782 3470.39 726.432 3469.42 723.424C3466.69 714.87 3460.8 707.444 3453.23 703.308L3466.34 706.504C3469.51 707.35 3471.27 702.838 3468.54 700.958C3463.09 697.292 3456.22 695.6 3449.71 694.66C3439.59 693.25 3419.26 688.456 3419.26 688.456C3419.18 688.456 3390.84 641.832 3385.82 628.014C3385.82 628.014 3421.38 593.234 3433.78 579.792C3443.2 569.546 3448.74 564.188 3446.81 550.464C3445.75 543.32 3440.91 537.586 3434.4 535.518Z" fill="#FED5B7"/>
<path d="M3501.54 413.13C3505.77 428.358 3509.38 443.774 3512.28 459.284C3514.04 468.684 3515.1 479.87 3508.76 486.638C3504.1 491.62 3491.51 490.492 3485 491.056C3485.88 500.174 3494.15 527.528 3492.57 529.784C3491.25 531.57 3460.62 535.424 3460.27 533.638C3458.16 521.794 3455.87 503.652 3453.76 491.808C3447.6 498.482 3437.04 493.782 3433.87 485.134C3430.7 476.392 3438.01 465.488 3446.81 465.864C3445.34 450.824 3443.87 435.784 3442.41 420.744C3442.32 419.616 3442.23 418.394 3442.76 417.454C3443.29 416.514 3444.26 415.95 3445.14 415.48C3461.86 406.926 3481.13 403.918 3499.43 407.02C3500.84 408.242 3501.63 410.31 3501.28 412.284L3501.54 413.13Z" fill="#FED5B7"/>
<path d="M3445.49 466.428C3451.21 464.924 3452.88 457.216 3453.5 450.918C3454.67 438.259 3455.84 425.601 3457.02 412.942C3458.31 418.143 3459.6 423.376 3460.89 428.64C3466.26 427.512 3471.8 427.23 3477.26 427.606C3476.96 423.658 3476.67 419.71 3476.38 415.762C3479.63 419.052 3482.18 423.094 3483.86 427.512C3487.55 426.885 3491.25 426.259 3494.94 425.632C3494.36 421.559 3493.77 417.485 3493.18 413.412C3495.65 416.89 3497.76 420.65 3499.26 424.692C3502.36 424.003 3505.44 423.313 3508.49 422.624C3509.29 422.53 3510.17 422.248 3510.43 421.402C3510.69 420.838 3510.43 420.18 3510.25 419.616C3508.85 415.731 3507.41 411.814 3505.94 407.866C3504.71 404.388 3503.39 400.722 3501.1 397.902C3497.41 393.39 3491.69 391.322 3486.14 390.664C3473.74 389.16 3461.42 393.484 3449.62 397.902C3446.19 399.124 3442.67 400.44 3439.94 402.884C3432.29 409.746 3433.08 422.436 3434.93 432.87C3436.81 443.962 3439.06 454.96 3441.7 465.864C3442.85 465.112 3444.34 464.83 3445.66 465.018L3445.49 466.428Z" fill="#EC8117"/>
<path d="M3450.33 481.938C3447.25 479.682 3443.82 477.896 3440.3 476.674C3439.33 476.298 3439.94 474.794 3440.82 475.076C3444.52 476.392 3448.04 478.272 3451.3 480.622C3452.09 481.186 3451.21 482.596 3450.33 481.938Z" fill="#AF7758"/>
<path d="M3447.78 479.682C3446.49 481.75 3445.22 483.818 3443.99 485.886C3443.73 486.262 3443.2 486.262 3442.85 485.98C3442.5 485.698 3442.5 485.228 3442.67 484.852C3443.96 482.784 3445.22 480.747 3446.46 478.742C3446.72 478.366 3447.25 478.272 3447.6 478.554C3447.95 478.836 3447.95 479.306 3447.78 479.682Z" fill="#AF7758"/>
<path opacity="0.3" d="M3485 491.056L3465.11 491.62L3486.67 501.49L3485 491.056Z" fill="#AF7758"/>
<path d="M3484.91 443.68C3487.11 448.192 3490.54 454.678 3496.35 453.55C3496.97 453.456 3497.32 454.114 3497.14 454.678C3496.09 458.156 3493.27 460.788 3490.01 461.728C3489.05 462.01 3488.78 460.318 3489.75 460.036C3492.57 459.284 3494.77 456.934 3495.73 454.02C3495.97 454.459 3496.23 454.866 3496.53 455.242C3493.62 455.806 3490.72 454.49 3488.61 452.328C3486.32 450.166 3484.91 447.158 3483.5 444.338C3483.06 443.304 3484.47 442.646 3484.91 443.68Z" fill="#AF7758"/>
<path d="M3474.62 453.268C3473.38 451.2 3471.1 450.072 3468.9 450.448C3466.7 450.824 3464.85 452.61 3464.23 454.866C3463.97 455.9 3462.56 455.242 3462.82 454.302C3463.62 451.482 3465.9 449.226 3468.63 448.756C3471.45 448.286 3474.35 449.696 3475.85 452.234C3476.38 453.174 3475.14 454.208 3474.62 453.268Z" fill="black"/>
<path d="M3506.38 449.32C3505.15 447.346 3502.86 446.124 3500.66 446.5C3498.46 446.876 3496.62 448.756 3496 451.012C3495.74 452.046 3494.33 451.388 3494.59 450.354C3495.38 447.534 3497.67 445.278 3500.4 444.808C3503.22 444.338 3506.12 445.842 3507.62 448.286C3508.14 449.226 3506.91 450.26 3506.38 449.32Z" fill="black"/>
<path d="M3459.04 436.442C3463.62 434.374 3466.78 434.562 3469.95 436.724C3470.3 437.006 3470.74 437.194 3471.1 437.194C3471.71 437.288 3472.24 436.63 3472.42 436.066C3472.42 435.941 3472.42 435.847 3472.42 435.784C3472.5 434.938 3472.15 433.998 3471.62 433.434C3471.62 433.434 3465.29 428.358 3459.04 436.442Z" fill="#EC8117"/>
<path d="M3504.45 434.75C3501.28 432.494 3496.88 432.306 3493.54 434.28C3493.18 434.562 3492.74 434.75 3492.39 434.75C3491.78 434.75 3491.34 434.092 3491.16 433.434C3491.16 433.371 3491.16 433.309 3491.16 433.246C3491.07 432.306 3491.51 431.46 3492.13 430.896C3492.13 430.896 3501.02 425.726 3504.45 434.75Z" fill="#EC8117"/>
<path d="M3492.13 467.274C3487.73 468.966 3482.71 467.274 3480.25 462.95C3480.07 462.574 3480.07 462.104 3480.42 461.822C3480.69 461.54 3481.3 461.54 3481.48 461.916C3483.59 465.582 3487.73 467.18 3491.51 465.676C3492.48 465.3 3493.1 466.898 3492.13 467.274Z" fill="#AF7758"/>
<path d="M3472.68 460.788C3472.77 460.224 3472.33 459.66 3471.8 459.66C3471.27 459.566 3470.74 459.942 3470.74 460.6C3470.66 461.164 3471.01 461.634 3471.54 461.728C3472.15 461.822 3472.59 461.446 3472.68 460.788Z" fill="#EC8117"/>
<path d="M3506.56 456.088C3506.65 455.524 3506.21 454.96 3505.68 454.866C3505.15 454.866 3504.62 455.242 3504.62 455.806C3504.53 456.464 3504.89 456.934 3505.41 457.028C3506.03 457.122 3506.47 456.652 3506.56 456.088Z" fill="#EC8117"/>
<path d="M3502.33 462.01C3502.42 461.446 3502.07 460.882 3501.45 460.788C3500.93 460.788 3500.4 461.164 3500.4 461.728C3500.31 462.386 3500.66 462.856 3501.28 462.95C3501.81 463.044 3502.25 462.574 3502.33 462.01Z" fill="#EC8117"/>
<path d="M3507.79 463.232C3507.79 462.668 3507.44 462.104 3506.91 462.104C3506.38 462.01 3505.86 462.386 3505.77 463.044C3505.68 463.608 3506.12 464.172 3506.65 464.172C3507.17 464.266 3507.7 463.89 3507.79 463.232Z" fill="#EC8117"/>
<path d="M3467.93 467.18C3468.01 466.616 3467.57 466.052 3467.05 466.052C3466.52 465.958 3465.99 466.334 3465.9 466.992C3465.82 467.556 3466.26 468.026 3466.78 468.12C3467.31 468.214 3467.84 467.838 3467.93 467.18Z" fill="#EC8117"/>
<path d="M3474.97 467.556C3474.97 466.992 3474.61 466.428 3474.09 466.428C3473.56 466.334 3473.03 466.71 3472.94 467.368C3472.86 467.932 3473.3 468.496 3473.82 468.496C3474.35 468.59 3474.88 468.214 3474.97 467.556Z" fill="#EC8117"/>
<path d="M3447.16 487.108C3452.18 488.33 3454.99 494.44 3452.53 499.422C3451.38 501.772 3449.36 503.464 3446.9 504.028C3444.34 504.498 3441.62 503.746 3439.68 501.96C3438.54 500.832 3437.74 499.422 3437.57 497.73C3437.39 495.944 3437.74 494.064 3438.54 492.372C3438.89 491.338 3440.38 491.996 3439.94 493.03C3438.98 495.192 3438.54 498.294 3440.3 500.268C3441.7 501.866 3443.9 502.712 3445.93 502.43C3449.98 501.96 3452.97 497.448 3451.56 493.312C3450.86 491.15 3449.1 489.27 3446.98 488.706C3446.02 488.518 3446.19 486.826 3447.16 487.108Z" fill="#FBBC05"/>
<path d="M3562.97 447.346C3567.1 449.884 3571.24 452.61 3574.93 455.806C3577.84 458.344 3580.48 461.54 3580.48 465.77C3580.57 466.898 3578.98 466.616 3578.98 465.582C3578.89 461.728 3575.99 458.814 3573.35 456.652C3569.83 453.644 3565.96 451.106 3562.09 448.662C3561.21 448.098 3562.17 446.782 3562.97 447.346Z" fill="#AF7758"/>
<path d="M3580.21 419.052C3580.21 425.35 3580.04 431.742 3580.12 438.04C3580.12 439.074 3578.54 438.886 3578.54 437.852C3578.54 431.46 3578.63 425.162 3578.63 418.864C3578.63 417.736 3580.21 418.018 3580.21 419.052Z" fill="#AF7758"/>
<path d="M3590.6 427.042C3590.36 430.739 3590.13 434.437 3589.89 438.134C3589.89 439.168 3588.31 438.98 3588.4 437.852C3588.63 434.217 3588.87 430.551 3589.1 426.854C3589.1 425.726 3590.69 425.914 3590.6 427.042Z" fill="#AF7758"/>
<path d="M3570.01 428.64C3570.42 431.836 3570.71 435.032 3570.89 438.228C3570.97 438.698 3570.71 439.168 3570.27 439.262C3569.83 439.262 3569.39 438.98 3569.39 438.51C3569.21 435.314 3568.92 432.118 3568.51 428.922C3568.33 427.888 3569.92 427.606 3570.01 428.64Z" fill="#AF7758"/>
<path d="M3591.56 438.886C3583.64 439.826 3575.64 439.92 3567.72 439.356C3566.66 439.262 3566.84 437.664 3567.89 437.664C3575.73 438.228 3583.56 438.134 3591.39 437.288C3592.36 437.1 3592.62 438.792 3591.56 438.886Z" fill="#AF7758"/>
<path d="M3589.45 443.304C3586.2 446.876 3584.17 451.67 3583.82 456.746C3583.73 457.78 3582.24 457.592 3582.33 456.464C3582.59 451.2 3584.7 446.124 3588.22 442.27C3588.93 441.518 3590.16 442.552 3589.45 443.304Z" fill="#AF7758"/>
<path d="M3577.4 550.464C3581.39 555.853 3585.17 561.399 3588.75 567.102C3589.28 568.042 3588.05 569.076 3587.52 568.136C3583.94 562.433 3580.16 556.887 3576.17 551.498C3575.55 550.652 3576.78 549.618 3577.4 550.464Z" fill="#AF7758"/>
<path d="M3463.79 727.466C3460.1 720.98 3455.96 713.742 3448.92 711.11C3447.95 710.734 3448.48 709.23 3449.45 709.512C3456.84 712.238 3461.24 719.664 3465.02 726.432C3465.55 727.372 3464.32 728.406 3463.79 727.466Z" fill="#AF7758"/>
<path d="M3454.2 729.252C3452.44 723.424 3448.74 718.442 3443.9 715.152C3443.11 714.588 3443.99 713.272 3444.87 713.836C3449.89 717.314 3453.76 722.578 3455.7 728.594C3455.96 729.628 3454.55 730.286 3454.2 729.252Z" fill="#AF7758"/>
<path d="M3454.99 702.18C3450.42 707.35 3446.19 712.896 3442.5 718.818C3441.88 719.664 3440.65 718.724 3441.18 717.784C3444.96 711.862 3449.18 706.316 3453.76 701.146C3454.46 700.394 3455.7 701.334 3454.99 702.18Z" fill="#AF7758"/>
<path d="M3383.98 628.39C3375.35 627.732 3366.64 628.108 3358.11 629.424C3357.05 629.612 3356.87 627.92 3357.84 627.826C3366.55 626.416 3375.35 626.04 3384.15 626.792C3385.12 626.886 3384.94 628.484 3383.98 628.39Z" fill="#AF7758"/>
<path d="M3492.65 528.75L3497.14 577.348L3460.27 533.638L3477.7 518.128L3492.65 528.75Z" fill="#FED5B7"/>
<path d="M3448.22 581.484C3438.27 591.542 3427.54 600.66 3416.1 608.65C3410.29 612.786 3404.13 616.734 3397.35 618.614C3396.47 618.896 3395.5 619.178 3394.62 618.896C3393.48 618.614 3392.69 617.674 3391.9 616.828C3383.39 607.115 3374.85 597.401 3366.29 587.688C3372.1 574.246 3382.13 563.53 3392.34 553.566C3406.33 539.748 3419 527.716 3455.52 513.616C3455.96 513.428 3445.93 519.162 3446.28 519.35C3446.54 519.632 3443.2 525.46 3443.38 525.836C3450.77 542.286 3456.14 559.864 3459.04 577.912C3459.3 579.322 3458.86 581.39 3457.63 581.014L3448.22 581.484Z" fill="#EA4335" fill-opacity="0.97"/>
<path d="M3491.33 511.548C3509.81 511.642 3527.15 520.478 3543.25 530.066C3551.17 534.766 3566.93 544.636 3574.58 549.712C3575.73 550.464 3590.95 584.398 3587.78 597.84C3574.05 597.276 3538.5 590.696 3524.95 588.628C3523.98 588.44 3523.01 588.346 3522.31 587.782C3521.34 587.124 3520.9 585.996 3520.46 584.868C3513.72 569.013 3507 553.127 3500.31 537.21L3491.33 511.548Z" fill="#EA4335" fill-opacity="0.97"/>
<path d="M3516.33 529.596C3519.93 537.304 3523.19 545.2 3526.01 553.284C3528.91 561.462 3531.55 569.64 3534.01 577.912C3535.42 582.612 3536.8 587.281 3538.15 591.918C3538.41 592.952 3537.01 593.61 3536.65 592.576C3534.28 584.304 3531.9 576.032 3529.26 567.854C3526.62 559.676 3523.81 551.498 3520.64 543.508C3518.88 538.996 3516.97 534.578 3514.92 530.254C3514.39 529.314 3515.89 528.656 3516.33 529.596Z" fill="#561E1C"/>
<path d="M3494.42 521.606C3497.06 523.016 3499.96 524.614 3501.46 527.434C3502.95 530.066 3502.95 533.262 3500.93 535.612C3499.96 536.646 3498.73 537.586 3498.46 539.09C3498.2 540.594 3498.9 542.004 3499.61 543.132C3501.19 545.67 3503.48 547.55 3504.45 550.558C3504.89 551.78 3505.06 553.19 3504.62 554.506C3504.18 556.01 3503.04 556.668 3501.81 557.42C3499.26 558.924 3500.14 562.402 3501.19 564.752C3501.81 566.162 3502.6 567.478 3503.3 568.888C3503.92 570.204 3504.45 571.614 3504.62 573.118C3504.8 574.528 3504.62 576.032 3503.92 577.254C3503.13 578.476 3501.81 579.04 3500.58 579.698C3499.52 580.262 3498.9 581.202 3498.46 582.424C3498.11 583.646 3497.94 584.868 3497.5 585.996C3497.14 587.124 3496.53 588.064 3495.56 588.534C3494.33 589.192 3493.01 589.004 3491.86 588.158C3489.4 586.466 3489.14 583.364 3488.43 580.544C3488.08 579.228 3487.64 577.912 3486.5 577.066C3485.62 576.408 3484.38 576.126 3483.33 575.938C3481.13 575.468 3478.49 575.186 3477.34 572.742C3476.64 571.426 3476.82 569.922 3477.08 568.512C3477.26 567.196 3477.7 565.598 3477.26 564.282C3476.55 562.496 3474.62 561.744 3473.03 561.18C3471.27 560.522 3469.34 560.146 3467.75 559.018C3465.82 557.608 3465.46 555.352 3466.08 553.096C3466.52 551.78 3467.31 550.276 3466.78 548.866C3466.43 547.926 3465.55 547.456 3464.67 547.174C3462.47 546.422 3460.01 546.516 3457.98 545.2C3455.96 543.884 3454.99 541.158 3455.34 538.714C3455.52 537.492 3456.05 536.364 3456.84 535.518C3456.96 535.957 3457.07 536.395 3457.19 536.834C3454.2 535.518 3450.5 533.638 3449.62 529.972C3448.66 525.648 3452.53 522.546 3455.52 520.572C3456.4 520.008 3457.37 521.324 3456.49 521.888C3454.02 523.486 3450.33 526.118 3451.21 529.784C3452 532.698 3455.34 534.202 3457.72 535.236C3458.16 535.424 3458.42 536.176 3458.07 536.552C3456.58 538.15 3456.49 540.782 3457.72 542.662C3458.95 544.636 3461.5 544.73 3463.53 545.2C3465.55 545.576 3467.75 546.328 3468.37 548.584C3468.72 550.088 3468.28 551.592 3467.75 553.002C3467.4 554.13 3467.05 555.258 3467.58 556.386C3468.28 557.89 3470.13 558.454 3471.54 558.924C3473.3 559.582 3475.14 560.052 3476.73 561.086C3478.58 562.496 3479.19 564.658 3478.93 566.914C3478.66 568.324 3478.22 569.828 3478.49 571.238C3478.66 572.366 3479.37 573.118 3480.34 573.494C3482.45 574.434 3484.82 574.152 3486.85 575.374C3489.31 576.784 3489.84 579.604 3490.37 582.236C3490.63 583.646 3491.07 584.868 3491.95 585.996C3492.66 586.936 3493.8 587.688 3494.94 587.03C3495.74 586.56 3496.09 585.432 3496.35 584.492C3496.62 583.364 3496.88 582.236 3497.23 581.108C3497.76 579.98 3498.46 579.04 3499.52 578.382C3500.66 577.724 3502.07 577.348 3502.69 576.126C3504.01 573.682 3502.34 570.298 3501.19 568.136C3499.78 565.786 3498.46 563.154 3498.55 560.24C3498.64 559.018 3499.08 557.796 3499.96 556.856C3500.84 555.916 3502.42 555.634 3503.04 554.318C3503.57 553.19 3503.3 551.78 3502.86 550.746C3502.34 549.43 3501.63 548.208 3500.66 547.174C3498.99 545.2 3496.88 542.756 3496.88 539.842C3496.88 538.432 3497.41 537.116 3498.29 536.082C3499.17 535.048 3500.4 534.108 3500.84 532.698C3501.72 529.784 3499.7 526.964 3497.58 525.46C3496.44 524.52 3495.12 523.862 3493.8 523.204C3492.92 522.734 3493.54 521.136 3494.42 521.606Z" fill="#561E1C"/>
<path d="M3427.98 542.944C3430.18 556.574 3431.58 570.298 3432.11 584.116C3432.23 588.002 3432.29 591.918 3432.29 595.866C3432.29 596.9 3430.7 596.712 3430.7 595.678C3430.7 581.954 3429.82 568.23 3428.06 554.6C3427.6 550.777 3427.04 546.986 3426.39 543.226C3426.22 542.192 3427.8 541.91 3427.98 542.944Z" fill="#5E1B1B"/>
<path d="M3396.56 616.922C3387.88 608.211 3379.43 599.219 3371.22 589.944C3370.63 589.317 3370.04 588.691 3369.46 588.064C3369.02 587.5 3368.23 586.936 3367.96 586.184C3367.7 585.62 3367.96 584.868 3368.58 584.68C3369.11 584.492 3369.72 584.962 3369.72 585.62C3369.81 585.902 3369.72 586.184 3369.46 586.372C3369.46 586.372 3369.43 586.372 3369.37 586.372C3368.58 586.936 3367.52 585.62 3368.4 585.056C3368.46 585.056 3368.49 585.056 3368.49 585.056C3368.37 585.307 3368.28 585.557 3368.23 585.808C3368.34 585.996 3368.49 586.184 3368.67 586.372C3368.84 586.309 3369.02 586.247 3369.19 586.184C3369.31 585.996 3369.4 585.808 3369.46 585.62C3369.52 585.683 3369.57 585.745 3369.63 585.808C3369.72 585.902 3369.9 586.184 3369.99 586.184C3370.22 586.435 3370.43 586.685 3370.6 586.936C3371.07 587.437 3371.54 587.939 3372.01 588.44C3372.89 589.443 3373.8 590.445 3374.74 591.448C3376.5 593.453 3378.29 595.427 3380.11 597.37C3383.74 601.318 3387.41 605.235 3391.1 609.12C3393.28 611.313 3395.42 613.475 3397.53 615.606C3398.23 616.358 3397.35 617.674 3396.56 616.922Z" fill="#561E1C"/>
<path d="M3572.82 551.216C3575.93 562.434 3578.54 573.776 3580.65 585.244C3581.24 588.503 3581.8 591.762 3582.33 595.02C3582.5 596.054 3580.92 596.336 3580.74 595.208C3578.92 583.803 3576.63 572.491 3573.88 561.274C3573.06 558.141 3572.23 555.007 3571.41 551.874C3571.15 550.84 3572.56 550.182 3572.82 551.216Z" fill="#561E1C"/>
<path d="M3525.97 675.106C3525.15 677.926 3524.33 680.746 3523.51 683.566C3523.33 683.942 3522.81 684.13 3522.46 683.942C3522.02 683.754 3521.93 683.284 3522.02 682.908C3522.84 680.088 3523.66 677.299 3524.48 674.542C3524.66 674.072 3525.18 673.884 3525.53 674.072C3525.89 674.26 3526.06 674.73 3525.97 675.106Z" fill="#751A23"/>
<path d="M3510.87 675.202C3510.52 677.458 3510.34 679.714 3510.43 681.97C3510.43 682.44 3510.17 682.816 3509.73 682.91C3509.37 683.004 3508.94 682.628 3508.85 682.158C3508.76 679.808 3508.85 677.364 3509.37 675.014C3509.46 674.544 3509.81 674.262 3510.25 674.262C3510.61 674.356 3510.96 674.732 3510.87 675.202Z" fill="#561E1C"/>
<path d="M3468.19 671.912C3468.46 674.262 3468.28 676.612 3467.49 678.868C3467.4 679.244 3466.87 679.432 3466.52 679.338C3466.08 679.15 3465.9 678.68 3466.08 678.21C3466.7 676.236 3466.87 674.168 3466.61 672.1C3466.52 671.066 3468.02 670.784 3468.19 671.912Z" fill="#561E1C"/>
<path d="M3464.41 669.656C3464.47 671.912 3464.52 674.137 3464.58 676.33C3464.58 676.8 3464.41 677.27 3463.88 677.27C3463.53 677.364 3463 677.082 3463 676.612C3462.94 674.419 3462.91 672.194 3462.91 669.938C3462.82 669.468 3463.09 669.092 3463.53 668.998C3463.88 668.904 3464.41 669.28 3464.41 669.656Z" fill="#561E1C"/>
<path d="M3460.18 669.374C3460.18 672.288 3460.45 675.108 3461.15 677.928C3461.24 678.398 3460.89 678.774 3460.45 678.868C3460.01 678.962 3459.66 678.586 3459.57 678.21C3458.86 675.202 3458.6 672.194 3458.6 669.186C3458.6 668.716 3459.13 668.434 3459.48 668.528C3459.92 668.528 3460.18 668.998 3460.18 669.374Z" fill="#561E1C"/>
<path d="M3509.46 615.324C3498.37 624.536 3487.61 634.124 3477.17 644.088C3474.53 646.626 3471.62 649.164 3469.86 652.642C3469.42 653.582 3468.02 652.924 3468.46 651.984C3469.95 648.882 3472.33 646.532 3474.79 644.182C3477.37 641.675 3479.98 639.2 3482.62 636.756C3488.02 631.743 3493.51 626.823 3499.08 621.998C3502.19 619.303 3505.33 616.64 3508.49 614.008C3509.29 613.35 3510.25 614.666 3509.46 615.324Z" fill="#561E1C"/>
<path d="M3504.01 627.544C3497.05 631.492 3490.72 636.662 3485.35 642.772C3484.65 643.618 3483.33 642.584 3484.03 641.832C3489.66 635.44 3496.17 630.082 3503.39 626.04C3504.27 625.476 3504.89 627.074 3504.01 627.544Z" fill="#561E1C"/>
<path d="M3489.22 510.42C3488.87 513.146 3490.63 515.496 3493.09 515.872C3495.65 516.154 3497.85 514.274 3498.2 511.642C3498.46 509.01 3496.7 506.566 3494.24 506.284C3491.77 505.908 3489.49 507.788 3489.22 510.42Z" fill="white"/>
<path d="M3485.97 520.854C3485.7 523.486 3487.46 525.836 3489.93 526.212C3492.39 526.494 3494.68 524.614 3494.94 521.982C3495.3 519.35 3493.54 517 3490.98 516.624C3488.52 516.342 3486.32 518.222 3485.97 520.854Z" fill="white"/>
<path d="M3475.5 524.332C3475.14 526.964 3476.9 529.314 3479.46 529.69C3481.92 529.972 3484.12 528.092 3484.47 525.46C3484.74 522.828 3482.98 520.478 3480.51 520.102C3478.05 519.82 3475.76 521.7 3475.5 524.332Z" fill="white"/>
<path d="M3464.85 524.52C3464.58 527.152 3466.34 529.596 3468.81 529.878C3471.27 530.254 3473.47 528.374 3473.82 525.742C3474.09 523.11 3472.33 520.666 3469.86 520.384C3467.4 520.008 3465.2 521.888 3464.85 524.52Z" fill="white"/>
<path d="M3454.82 520.008C3454.46 522.64 3456.22 524.99 3458.69 525.366C3461.15 525.648 3463.44 523.768 3463.7 521.136C3464.06 518.504 3462.3 516.06 3459.83 515.778C3457.37 515.496 3455.08 517.376 3454.82 520.008Z" fill="white"/>
<path d="M3448.74 511.078C3448.39 513.71 3450.15 516.154 3452.62 516.436C3455.17 516.812 3457.37 514.932 3457.72 512.3C3457.98 509.574 3456.22 507.224 3453.76 506.848C3451.3 506.566 3449.01 508.446 3448.74 511.078Z" fill="white"/>
<path d="M3496.09 510.702C3493.8 518.222 3487.73 524.144 3480.69 526.306C3472.94 528.656 3464.32 526.4 3458.16 521.042C3454.9 518.128 3451.47 513.71 3452.53 508.916C3452.79 507.882 3454.29 508.07 3454.11 509.104C3453.23 513.052 3455.87 516.624 3458.51 519.068C3461.33 521.7 3464.67 523.674 3468.28 524.708C3475.23 526.682 3482.71 524.99 3488.26 520.008C3491.16 517.376 3493.45 513.992 3494.59 510.044C3494.94 509.01 3496.35 509.668 3496.09 510.702Z" fill="white"/>
<path d="M3485.61 404.388C3488.69 408.618 3490.89 413.506 3492.04 418.77C3492.3 419.804 3490.72 420.086 3490.45 419.052C3489.4 414.07 3487.29 409.464 3484.38 405.422C3483.77 404.576 3485 403.542 3485.61 404.388Z" fill="#B25C0F"/>
<path d="M3480.86 406.174C3483.15 408.806 3485 411.908 3486.14 415.292C3486.49 416.326 3485.09 416.984 3484.73 415.95C3483.59 412.754 3481.83 409.746 3479.63 407.208C3479.28 406.926 3479.45 406.362 3479.72 406.08C3480.07 405.798 3480.51 405.892 3480.86 406.174Z" fill="#B25C0F"/>
<path d="M3474.09 403.918C3475.41 406.362 3476.29 408.994 3476.73 411.72C3476.9 412.848 3475.41 413.036 3475.23 412.002C3474.79 409.37 3473.91 406.926 3472.68 404.576C3472.5 404.2 3472.77 403.636 3473.12 403.542C3473.56 403.354 3473.91 403.542 3474.09 403.918Z" fill="#B25C0F"/>
<path d="M3468.9 408.806C3470.3 410.404 3471.18 412.284 3471.71 414.446C3471.89 414.822 3471.45 415.292 3471.1 415.386C3470.66 415.386 3470.3 415.104 3470.22 414.634C3470.22 414.634 3470.13 414.446 3470.13 414.54C3470.22 414.634 3470.13 414.446 3470.13 414.446C3470.13 414.321 3470.1 414.196 3470.04 414.07C3469.98 413.882 3469.89 413.663 3469.78 413.412C3469.6 412.974 3469.42 412.535 3469.25 412.096C3469.19 412.034 3469.16 411.971 3469.16 411.908C3469.16 411.908 3469.07 411.72 3469.07 411.814C3469.07 411.908 3469.07 411.814 3469.07 411.72C3469.01 411.72 3468.95 411.689 3468.9 411.626C3468.78 411.376 3468.66 411.156 3468.54 410.968C3468.25 410.592 3467.96 410.216 3467.66 409.84C3467.4 409.558 3467.49 408.9 3467.84 408.712C3468.19 408.43 3468.63 408.524 3468.9 408.806Z" fill="#B25C0F"/>
<path d="M3463.53 411.438C3464.29 413.506 3465.05 415.543 3465.82 417.548C3465.99 418.018 3465.82 418.488 3465.38 418.676C3465.02 418.864 3464.5 418.676 3464.41 418.206C3463.65 416.201 3462.88 414.164 3462.12 412.096C3461.94 411.626 3462.12 411.156 3462.56 410.968C3462.91 410.78 3463.44 410.968 3463.53 411.438Z" fill="#B25C0F"/>
<path d="M3438.62 400.44C3431.58 401.568 3425.78 406.926 3422.26 413.412C3417.94 421.496 3417.06 430.896 3416.54 440.014C3416.27 444.526 3415.92 449.132 3414.51 453.362C3413.19 457.216 3410.9 460.412 3408.09 463.138C3405.36 465.77 3402.37 468.026 3399.47 470.47C3396.56 473.008 3394.01 475.828 3391.9 479.212C3387.85 485.792 3385.74 493.876 3386.27 501.866C3386.38 502.806 3386.5 503.777 3386.62 504.78C3386.79 505.814 3385.21 506.096 3385.03 505.062C3383.89 496.978 3385.3 488.518 3388.91 481.374C3390.67 477.802 3392.95 474.512 3395.77 471.692C3398.5 468.966 3401.58 466.71 3404.57 464.172C3407.47 461.728 3410.2 458.908 3411.96 455.336C3413.98 451.2 3414.51 446.594 3414.86 441.988C3415.13 437.288 3415.3 432.588 3416.1 427.982C3416.8 423.376 3417.94 418.77 3419.97 414.634C3423.14 407.678 3428.68 401.568 3435.72 399.406C3436.6 399.155 3437.48 398.936 3438.36 398.748C3439.33 398.56 3439.59 400.252 3438.62 400.44Z" fill="#B25C0F"/>
<path d="M3423.93 442.834C3425.95 450.166 3425.07 458.344 3421.55 465.018C3418.03 471.692 3411.96 475.828 3406.86 480.904C3404.3 483.536 3402.1 486.544 3400.7 490.116C3399.2 493.97 3398.58 498.106 3398.32 502.242C3397.7 511.172 3398.85 520.29 3396.56 529.032C3394.89 535.518 3390.84 541.91 3384.68 544.354C3383.98 544.667 3383.24 544.887 3382.48 545.012C3381.43 545.294 3381.25 543.602 3382.22 543.414C3388.46 542.004 3392.69 535.988 3394.71 529.878C3397.35 521.606 3396.3 512.582 3396.65 503.934C3396.82 499.892 3397.26 495.85 3398.41 491.996C3399.46 488.33 3401.22 485.04 3403.6 482.22C3408.09 476.768 3414.16 473.102 3418.3 467.368C3423.05 460.694 3424.63 451.576 3422.52 443.492C3422.26 442.458 3423.66 441.8 3423.93 442.834Z" fill="#B25C0F"/>
<path d="M3449.45 409.934C3443.82 415.386 3441.09 423.846 3441.88 431.836C3442.11 434.155 3442.64 436.379 3443.46 438.51C3443.82 439.45 3442.41 440.202 3442.06 439.168C3438.89 431.084 3439.86 421.59 3444.08 414.258C3445.31 412.096 3446.81 410.216 3448.48 408.524C3449.27 407.866 3450.24 409.182 3449.45 409.934Z" fill="#B25C0F"/>
<path d="M3433.78 427.418C3437.48 434.28 3437.57 443.116 3434.49 450.26C3433.61 452.328 3432.38 454.208 3430.97 455.9C3430.35 456.746 3429.12 455.712 3429.74 454.96C3434.4 449.226 3436.16 441.236 3434.49 433.904C3434.05 431.836 3433.34 429.862 3432.38 428.076C3431.85 427.136 3433.26 426.478 3433.78 427.418Z" fill="#B25C0F"/>
<path d="M3425.51 488.518C3427.27 493.406 3426.92 498.952 3425.16 503.84C3423.4 508.916 3420.32 513.146 3416.71 516.906C3414.69 519.068 3412.4 521.042 3410.2 523.016C3409.41 523.674 3408.44 522.358 3409.23 521.606C3416.54 515.402 3424.02 507.788 3425.07 497.26C3425.25 494.534 3424.98 491.714 3424.1 489.176C3423.75 488.142 3425.16 487.484 3425.51 488.518Z" fill="#B25C0F"/>
<path d="M3418.3 494.44C3417.33 499.986 3414.86 505.062 3411.08 509.104C3410.38 509.856 3409.41 508.54 3410.11 507.788C3413.54 504.122 3415.92 499.328 3416.8 494.252C3416.98 493.218 3418.47 493.406 3418.3 494.44Z" fill="#B25C0F"/>
<path d="M3378.17 506.096C3372.45 515.778 3369.9 527.434 3370.87 538.808C3371.22 542.004 3371.75 545.2 3372.63 548.302C3372.89 549.336 3371.48 549.994 3371.22 548.96C3367.96 537.586 3368.49 525.084 3372.63 514.086C3373.8 510.953 3375.24 507.976 3376.94 505.156C3377.46 504.216 3378.7 505.25 3378.17 506.096Z" fill="#B25C0F"/>
<path d="M3382.39 523.674C3381.6 530.912 3379.75 537.962 3377.03 544.636C3376.59 545.67 3375.09 545.012 3375.53 543.978C3378.26 537.492 3380.11 530.536 3380.9 523.392C3380.99 522.358 3382.57 522.546 3382.39 523.674Z" fill="#B25C0F"/>
<path d="M3421.46 620.306C3416.27 624.818 3413.81 632.432 3415.22 639.388C3415.48 640.422 3413.9 640.704 3413.72 639.67C3412.14 632.056 3414.95 623.878 3420.5 618.99C3421.29 618.332 3422.26 619.648 3421.46 620.306Z" fill="#B25C0F"/>
<path d="M3412.22 621.998C3410.55 625.946 3409.67 630.176 3409.76 634.5C3409.76 634.97 3409.58 635.346 3409.06 635.44C3408.7 635.44 3408.18 635.158 3408.18 634.688C3408.09 630.082 3408.97 625.57 3410.73 621.34C3411.17 620.4 3412.66 621.058 3412.22 621.998Z" fill="#B25C0F"/>
<path d="M3365.41 557.42C3361.71 561.556 3359.43 566.914 3358.9 572.648C3358.81 573.682 3357.31 573.494 3357.4 572.46C3357.84 566.444 3360.31 560.804 3364.18 556.48C3364.88 555.728 3366.11 556.668 3365.41 557.42Z" fill="#B25C0F"/>
<path d="M3373.77 563.53C3371.22 566.068 3369.81 569.546 3369.63 573.212C3369.63 574.246 3368.05 574.058 3368.14 573.024C3368.23 568.888 3369.99 565.034 3372.8 562.214C3373.07 561.932 3373.59 562.026 3373.86 562.402C3374.12 562.778 3374.03 563.248 3373.77 563.53Z" fill="#B25C0F"/>
<path d="M3520.11 485.134C3524.86 489.552 3526.27 496.978 3524.16 503.182C3523.54 504.874 3522.66 506.472 3521.52 507.882C3520.81 508.634 3519.58 507.694 3520.29 506.848C3525.04 501.208 3524.6 491.526 3519.14 486.45C3518.44 485.792 3519.32 484.476 3520.11 485.134Z" fill="#B25C0F"/>
<path d="M3516.33 495.098C3518 497.918 3517.91 501.678 3516.06 504.404C3515.45 505.25 3514.21 504.216 3514.83 503.37C3516.24 501.302 3516.33 498.294 3515.09 496.132C3514.83 495.756 3514.83 495.286 3515.18 495.004C3515.54 494.722 3516.06 494.722 3516.33 495.098Z" fill="#B25C0F"/>
<path d="M3511.14 406.644C3515.62 412.754 3517.82 420.556 3517.3 428.358C3517.18 430.489 3516.83 432.619 3516.24 434.75C3515.98 435.784 3514.48 435.126 3514.74 434.092C3517.21 425.162 3515.36 415.01 3509.9 407.678C3509.29 406.832 3510.52 405.798 3511.14 406.644Z" fill="#B25C0F"/>
<path d="M3512.02 417.924C3513.16 421.966 3513.34 426.102 3512.28 430.144C3512.19 430.614 3511.66 430.802 3511.31 430.614C3510.87 430.426 3510.78 429.956 3510.87 429.486C3511.75 425.914 3511.58 422.154 3510.52 418.582C3510.26 417.642 3511.66 416.89 3512.02 417.924Z" fill="#B25C0F"/>
<path d="M3494.5 391.51C3499.52 393.484 3503.04 398.842 3503.22 404.482C3503.22 404.952 3503.04 405.328 3502.6 405.422C3502.16 405.516 3501.72 405.234 3501.63 404.764C3501.54 399.594 3498.46 394.894 3493.98 393.014C3493.01 392.638 3493.62 391.04 3494.5 391.51Z" fill="#B25C0F"/>
<path d="M3490.63 393.296C3493.71 396.492 3495.3 400.816 3495.21 405.328C3495.12 406.456 3493.62 406.268 3493.62 405.14C3493.71 401.286 3492.3 397.338 3489.75 394.706C3489.4 394.33 3489.31 393.86 3489.58 393.484C3489.75 393.202 3490.37 393.014 3490.63 393.296Z" fill="#B25C0F"/>
<path d="M3517.73 439.732C3516.85 445.748 3517.12 451.858 3518.44 457.78C3518.61 458.814 3517.12 459.096 3516.85 458.062C3515.53 451.952 3515.27 445.654 3516.24 439.544C3516.33 438.416 3517.91 438.698 3517.73 439.732Z" fill="#B25C0F"/>
<path d="M3484.47 400.44C3478.31 396.304 3470.22 396.492 3463.97 400.158C3462.21 401.192 3460.54 402.508 3459.13 404.106C3458.51 404.858 3457.19 403.824 3457.9 403.072C3463.26 396.868 3471.8 394.33 3479.37 396.398C3481.54 396.962 3483.56 397.87 3485.44 399.124C3486.32 399.688 3485.35 401.004 3484.47 400.44Z" fill="#B25C0F"/>
<path d="M3445.14 386.998C3437.48 395.082 3425.78 395.27 3416.1 398.842C3411.17 400.628 3406.59 403.448 3403.78 408.242C3400.52 413.788 3400.17 420.744 3399.73 427.042C3399.29 433.528 3399.02 440.296 3396.3 446.218C3394.98 449.132 3392.95 451.67 3390.58 453.738C3388.11 455.712 3385.38 457.216 3382.57 458.626C3379.66 459.942 3376.67 461.164 3373.86 462.668C3371.22 463.984 3368.66 465.582 3366.38 467.462C3361.8 471.128 3358.02 475.828 3355.03 481.092C3349.22 491.432 3346.84 504.216 3349.22 516.154C3349.51 517.658 3349.89 519.131 3350.36 520.572C3350.71 521.606 3349.22 522.264 3348.95 521.23C3345.26 509.386 3346.4 496.226 3351.33 485.04C3353.79 479.4 3357.14 474.23 3361.36 469.906C3363.38 467.744 3365.67 465.77 3368.05 464.078C3370.69 462.292 3373.42 460.976 3376.23 459.66C3381.95 457.028 3388.2 454.772 3392.34 449.602C3396.47 444.526 3397.44 437.664 3397.88 431.272C3398.41 424.692 3398.41 417.83 3400.61 411.532C3402.54 405.892 3406.33 401.756 3411.26 399.124C3416.1 396.586 3421.38 395.458 3426.57 394.142C3431.58 392.826 3436.86 391.416 3441.26 388.22C3442.32 387.468 3443.32 386.622 3444.26 385.682C3444.96 384.93 3445.93 386.246 3445.14 386.998Z" fill="#EC8117"/>
<path d="M3522.31 419.24C3528.47 424.88 3529.61 434.186 3529.17 442.27C3528.91 447.628 3528.12 452.798 3528.03 458.156C3527.94 462.574 3528.65 466.992 3530.05 471.222C3532.61 479.118 3536.92 486.074 3540.44 493.406C3544.05 500.644 3546.95 508.54 3546.6 516.906C3546.25 525.648 3542.73 534.108 3536.83 540.124C3536.13 540.876 3535.39 541.597 3534.63 542.286C3533.84 542.944 3532.87 541.628 3533.66 540.97C3539.82 535.706 3543.87 527.716 3544.84 519.256C3545.81 511.078 3543.34 503.182 3540 495.944C3536.57 488.706 3532.34 481.938 3529.53 474.418C3528.12 470.752 3527.06 466.898 3526.62 462.856C3526.18 457.686 3526.71 452.516 3527.24 447.346C3528.03 439.168 3528.47 429.486 3523.28 422.624C3522.69 421.872 3522.05 421.183 3521.34 420.556C3520.55 419.898 3521.52 418.582 3522.31 419.24Z" fill="#EC8117"/>
<path d="M3452.18 448.474C3453.76 451.764 3453.67 455.712 3453.32 459.378C3452.97 462.95 3452.35 466.71 3453.23 470.282C3454.02 473.854 3456.75 477.238 3460.18 477.426C3455.26 478.366 3450.24 475.358 3447.51 470.94C3444.78 466.522 3443.99 460.976 3444.34 455.712L3452.18 448.474Z" fill="#EC8117"/>
<path d="M3564.81 962.748C3564.55 963.406 3564.02 963.97 3563.41 964.252C3562.79 964.628 3562 964.628 3561.38 964.44C3561.21 964.346 3561.03 964.158 3560.94 963.97C3560.85 963.782 3560.85 963.5 3560.94 963.312C3561.03 963.124 3561.12 962.936 3561.38 962.842C3561.56 962.779 3561.73 962.779 3561.91 962.842C3561.97 962.842 3562 962.873 3562 962.936C3561.94 962.873 3561.88 962.842 3561.82 962.842C3562 962.905 3562.17 962.936 3562.35 962.936C3562.29 962.936 3562.2 962.936 3562.09 962.936C3562.26 962.936 3562.44 962.905 3562.61 962.842C3562.56 962.842 3562.5 962.842 3562.44 962.842C3562.61 962.842 3562.79 962.779 3562.97 962.654C3562.91 962.654 3562.85 962.685 3562.79 962.748C3562.97 962.685 3563.11 962.591 3563.23 962.466C3563.17 962.466 3563.11 962.497 3563.05 962.56C3563.17 962.435 3563.29 962.309 3563.41 962.184C3563.35 962.247 3563.29 962.309 3563.23 962.372C3563.29 962.247 3563.35 962.153 3563.41 962.09C3563.49 961.62 3564.02 961.432 3564.37 961.62C3564.81 961.808 3564.99 962.278 3564.81 962.748Z" fill="#AF7758"/>
<path d="M3410.9 966.79C3409.32 967.824 3407.47 968.294 3405.62 968.106C3405.18 968.012 3404.83 967.636 3404.92 967.166C3405.01 966.696 3405.36 966.414 3405.8 966.414C3405.98 966.476 3406.18 966.508 3406.42 966.508C3406.42 966.508 3406.77 966.508 3406.59 966.508C3406.65 966.508 3406.74 966.508 3406.86 966.508C3407.21 966.445 3407.59 966.383 3408 966.32C3408.12 966.32 3408.21 966.289 3408.26 966.226C3408.32 966.226 3408.38 966.226 3408.44 966.226C3408.38 966.226 3408.38 966.226 3408.44 966.226C3408.62 966.163 3408.79 966.069 3408.97 965.944C3409.14 965.881 3409.32 965.819 3409.5 965.756C3409.61 965.693 3409.73 965.63 3409.85 965.568C3409.85 965.568 3409.88 965.536 3409.94 965.474C3409.88 965.536 3409.88 965.536 3409.94 965.474C3410.29 965.286 3410.82 965.192 3411.08 965.662C3411.26 965.944 3411.34 966.602 3410.9 966.79Z" fill="#AF7758"/>
</g>
<defs>
<filter id="filter0_d_43_309" x="0" y="0" width="4316" height="1328" filterUnits="userSpaceOnUse" color-interpolation-filters="sRGB">
<feFlood flood-opacity="0" result="BackgroundImageFix"/>
<feColorMatrix in="SourceAlpha" type="matrix" values="0 0 0 0 0 0 0 0 0 0 0 0 0 0 0 0 0 0 127 0" result="hardAlpha"/>
<feOffset dx="8" dy="8"/>
<feGaussianBlur stdDeviation="2"/>
<feColorMatrix type="matrix" values="0 0 0 0 0 0 0 0 0 0 0 0 0 0 0 0 0 0 0.38 0"/>
<feBlend mode="normal" in2="BackgroundImageFix" result="effect1_dropShadow_43_309"/>
<feBlend mode="normal" in="SourceGraphic" in2="effect1_dropShadow_43_309" result="shape"/>
</filter>
</defs>
</svg>