<svg width="41" height="43" viewBox="0 0 41 43" fill="none" xmlns="http://www.w3.org/2000/svg">
<path d="M0 20.5C0 9.17816 9.17816 0 20.5 0C31.8218 0 41 9.17816 41 20.5V22.5C41 33.8218 31.8218 43 20.5 43C9.17816 43 0 33.8218 0 22.5V20.5Z" fill="#D9D9D9"/>
<path d="M18 8.5C18 7.11929 19.1193 6 20.5 6C21.8807 6 23 7.11929 23 8.5V26.5C23 27.8807 21.8807 29 20.5 29C19.1193 29 18 27.8807 18 26.5V8.5Z" fill="#2B7F41"/>
<path d="M18 33.5C18 32.1193 19.1193 31 20.5 31C21.8807 31 23 32.1193 23 33.5C23 34.8807 21.8807 36 20.5 36C19.1193 36 18 34.8807 18 33.5Z" fill="#2B7F41"/>
</svg>
