<svg width="244" height="41" viewBox="0 0 244 41" fill="none" xmlns="http://www.w3.org/2000/svg">
<path d="M5.92898 40.9205H0.417969V2.17351e-06H0.466739L19.5846 30.1206L17.1461 29.5236L36.1664 2.17351e-06H36.2639V40.9205H30.6066V14.2733L30.9968 17.4753L18.1215 37.7185H18.0239L4.95358 17.4753L5.92898 14.5447V40.9205ZM55.3818 40.9205V28.1125L42.2626 1.41105H49.2367L59.2346 22.6854L57.5276 22.7939L67.3792 1.41105H74.3533L61.0391 28.1125V40.9205H55.3818ZM80.352 40.9205V1.41105H86.0581V34.8422H103.518V40.9205H80.352ZM115.847 40.9205V28.1125L102.728 1.41105H109.702L119.7 22.6854L117.993 22.7939L127.844 1.41105H134.818L121.504 28.1125V40.9205H115.847ZM140.817 40.9205V1.41105H162.373V7.48944H146.523V18.615H160.325V24.6392H146.523V40.9205H140.817ZM169.738 40.9205V1.41105H193.294V7.48944H175.444V18.0181H191.343V24.0964H175.444V34.8422H193.976V40.9205H169.738Z" fill="#34A853"/>
<path d="M243.289 39.1347C243.289 39.1347 241.434 37.3473 238.97 35.3315C236.507 33.3162 221.965 19.828 221.96 19.8245L213.662 10.5183L238.785 31.3251C239.352 29.7043 239.487 27.5073 238.991 24.5606C235.842 5.81746 220.648 2.76255 217.054 2.09682C214.865 1.69125 203.359 0.0221407 202.663 0C202.789 0.761841 206.027 13.1611 206.72 15.507C207.859 19.3585 212.89 35.6017 230.016 36.2071C232.296 36.2881 234.028 35.953 235.328 35.3204L242.347 40.9205L243.289 39.1347Z" fill="#34A853"/>
</svg>
