<svg version="1.2" xmlns="http://www.w3.org/2000/svg" viewBox="0 0 405 408" width="199" height="200">
	<title>love-08-ai</title>
	<style>
		.s0 { fill: #e21950 } 
		.s1 { fill: #ffffff } 
	</style>
	<g id="_Artboards_">
	</g>
	<g id="Layer 1">
		<g id="&lt;Group&gt;">
			<path id="&lt;Path&gt;" class="s0" d="m396 203c0 106-86 192-192 192-106 0-192-86-192-192 0-106 86-192 192-192 106 0 192 86 192 192z"/>
			<path id="&lt;Path&gt;" class="s1" d="m311.5 129.6c-25.6-25.5-67-25.5-92.5 0l-15 15-15-15c-25.5-25.5-66.9-25.5-92.5 0-25.5 25.5-25.5 66.9 0 92.5l15 15 92.5 92.4 92.5-92.4 15-15c25.5-25.6 25.5-67 0-92.5z"/>
		</g>
	</g>
</svg>