<svg width="181" height="93" viewBox="0 0 181 93" fill="none" xmlns="http://www.w3.org/2000/svg">
<g clip-path="url(#clip0_72_964)">
<rect x="1.35" y="13.35" width="170.3" height="66.3" rx="33.15" fill="#4F4F4F" stroke="url(#paint0_linear_72_964)" stroke-width="1.3"/>
<mask id="mask0_72_964" style="mask-type:alpha" maskUnits="userSpaceOnUse" x="2" y="14" width="169" height="65">
<rect x="2" y="14" width="169" height="65" rx="32.5" fill="black"/>
</mask>
<g mask="url(#mask0_72_964)">
<g filter="url(#filter0_i_72_964)">
<rect x="2" y="14" width="169" height="65" rx="32.5" fill="#1F2533"/>
</g>
<path d="M16.95 33.5L17.4767 34.9233L18.9 35.45L17.4767 35.9767L16.95 37.4L16.4233 35.9767L15 35.45L16.4233 34.9233L16.95 33.5Z" fill="#DEE5F3"/>
<path d="M40.3494 43.8999L40.8761 45.3232L42.2994 45.8499L40.8761 46.3766L40.3494 47.7999L39.8227 46.3766L38.3994 45.8499L39.8227 45.3232L40.3494 43.8999Z" fill="#DEE5F3"/>
<path d="M22.1492 67.2998L22.6759 68.7231L24.0992 69.2498L22.6759 69.7765L22.1492 71.1998L21.6225 69.7765L20.1992 69.2498L21.6225 68.7231L22.1492 67.2998Z" fill="#DEE5F3"/>
<path d="M28.65 47.7998L28.8256 48.2742L29.3 48.4498L28.8256 48.6254L28.65 49.0998L28.4744 48.6254L28 48.4498L28.4744 48.2742L28.65 47.7998Z" fill="#DEE5F3"/>
<path d="M18.2496 56.8999L18.4252 57.3743L18.8996 57.5499L18.4252 57.7255L18.2496 58.1999L18.0741 57.7255L17.5996 57.5499L18.0741 57.3743L18.2496 56.8999Z" fill="#DEE5F3"/>
<path d="M32.8744 69.8999L33.1378 70.6116L33.8494 70.8749L33.1378 71.1382L32.8744 71.8499L32.6111 71.1382L31.8994 70.8749L32.6111 70.6116L32.8744 69.8999Z" fill="#DEE5F3"/>
<g filter="url(#filter1_f_72_964)">
<path d="M15.975 43.8999L16.2383 44.6116L16.95 44.8749L16.2383 45.1382L15.975 45.8499L15.7117 45.1382L15 44.8749L15.7117 44.6116L15.975 43.8999Z" fill="#DEE5F3"/>
</g>
<path d="M10.4498 63.3999L10.6254 63.8743L11.0998 64.0499L10.6254 64.2255L10.4498 64.6999L10.2742 64.2255L9.7998 64.0499L10.2742 63.8743L10.4498 63.3999Z" fill="#DEE5F3"/>
<path d="M42.9498 60.7998L43.1254 61.2742L43.5998 61.4498L43.1254 61.6254L42.9498 62.0998L42.7742 61.6254L42.2998 61.4498L42.7742 61.2742L42.9498 60.7998Z" fill="#DEE5F3"/>
<path d="M31.2496 27L31.4252 27.4744L31.8996 27.65L31.4252 27.8256L31.2496 28.3L31.0741 27.8256L30.5996 27.65L31.0741 27.4744L31.2496 27Z" fill="#DEE5F3"/>
<path d="M5.24961 47.7998L5.42517 48.2742L5.89961 48.4498L5.42517 48.6254L5.24961 49.0998L5.07405 48.6254L4.59961 48.4498L5.07405 48.2742L5.24961 47.7998Z" fill="#DEE5F3"/>
<path d="M50.7498 20.5L51.2765 21.9233L52.6998 22.45L51.2765 22.9767L50.7498 24.4L50.2231 22.9767L48.7998 22.45L50.2231 21.9233L50.7498 20.5Z" fill="#DEE5F3"/>
<path d="M80.6492 33.5L81.1759 34.9233L82.5992 35.45L81.1759 35.9767L80.6492 37.4L80.1225 35.9767L78.6992 35.45L80.1225 34.9233L80.6492 33.5Z" fill="#DEE5F3"/>
<path d="M62.449 63.3999L62.9757 64.8232L64.399 65.3499L62.9757 65.8766L62.449 67.2999L61.9223 65.8766L60.499 65.3499L61.9223 64.8232L62.449 63.3999Z" fill="#DEE5F3"/>
<path d="M68.9498 37.3999L69.1254 37.8743L69.5998 38.0499L69.1254 38.2255L68.9498 38.6999L68.7742 38.2255L68.2998 38.0499L68.7742 37.8743L68.9498 37.3999Z" fill="#DEE5F3"/>
<path d="M63.7496 51.7002L63.9252 52.1746L64.3996 52.3502L63.9252 52.5258L63.7496 53.0002L63.5741 52.5258L63.0996 52.3502L63.5741 52.1746L63.7496 51.7002Z" fill="#DEE5F3"/>
<path d="M70.5746 45.2002L70.8379 45.9119L71.5496 46.1752L70.8379 46.4385L70.5746 47.1502L70.3113 46.4385L69.5996 46.1752L70.3113 45.9119L70.5746 45.2002Z" fill="#DEE5F3"/>
<g filter="url(#filter2_f_72_964)">
<path d="M56.2748 33.5L56.5381 34.2117L57.2498 34.475L56.5381 34.7383L56.2748 35.45L56.0115 34.7383L55.2998 34.475L56.0115 34.2117L56.2748 33.5Z" fill="#DEE5F3"/>
</g>
<g filter="url(#filter3_f_72_964)">
<path d="M50.7496 51.7002L50.9252 52.1746L51.3996 52.3502L50.9252 52.5258L50.7496 53.0002L50.5741 52.5258L50.0996 52.3502L50.5741 52.1746L50.7496 51.7002Z" fill="#DEE5F3"/>
</g>
<path d="M83.2496 50.3999L83.4252 50.8743L83.8996 51.0499L83.4252 51.2255L83.2496 51.6999L83.0741 51.2255L82.5996 51.0499L83.0741 50.8743L83.2496 50.3999Z" fill="#DEE5F3"/>
<path d="M76.7496 24.3999L76.9252 24.8743L77.3996 25.0499L76.9252 25.2255L76.7496 25.6999L76.5741 25.2255L76.0996 25.0499L76.5741 24.8743L76.7496 24.3999Z" fill="#DEE5F3"/>
<path d="M45.5494 37.3999L45.725 37.8743L46.1994 38.0499L45.725 38.2255L45.5494 38.6999L45.3739 38.2255L44.8994 38.0499L45.3739 37.8743L45.5494 37.3999Z" fill="#DEE5F3"/>
</g>
<g filter="url(#filter4_dii_72_964)">
<rect width="53.6474" height="53.6474" rx="26.8237" transform="matrix(-1 3.99602e-09 3.99602e-09 1 165.1 19.7026)" fill="#DEE5F3"/>
</g>
<path opacity="0.9" d="M137.59 22.9276C126.708 20.3259 115.756 26.9511 113.009 37.7967L112.896 38.2432C110.113 49.233 116.882 60.3696 127.918 62.9599V62.9599V62.9599C138.99 65.5585 150.129 58.6302 152.727 47.5584V47.5584C155.3 36.5951 148.542 25.5464 137.59 22.9276V22.9276Z" fill="#1F2533" fill-opacity="0.79"/>
</g>
<defs>
<filter id="filter0_i_72_964" x="2" y="14" width="169" height="72.8" filterUnits="userSpaceOnUse" color-interpolation-filters="sRGB">
<feFlood flood-opacity="0" result="BackgroundImageFix"/>
<feBlend mode="normal" in="SourceGraphic" in2="BackgroundImageFix" result="shape"/>
<feColorMatrix in="SourceAlpha" type="matrix" values="0 0 0 0 0 0 0 0 0 0 0 0 0 0 0 0 0 0 127 0" result="hardAlpha"/>
<feOffset dy="7.8"/>
<feGaussianBlur stdDeviation="5.85"/>
<feComposite in2="hardAlpha" operator="arithmetic" k2="-1" k3="1"/>
<feColorMatrix type="matrix" values="0 0 0 0 0.0903125 0 0 0 0 0.105719 0 0 0 0 0.141667 0 0 0 1 0"/>
<feBlend mode="normal" in2="shape" result="effect1_innerShadow_72_964"/>
</filter>
<filter id="filter1_f_72_964" x="14.74" y="43.6399" width="2.4702" height="2.4702" filterUnits="userSpaceOnUse" color-interpolation-filters="sRGB">
<feFlood flood-opacity="0" result="BackgroundImageFix"/>
<feBlend mode="normal" in="SourceGraphic" in2="BackgroundImageFix" result="shape"/>
<feGaussianBlur stdDeviation="0.13" result="effect1_foregroundBlur_72_964"/>
</filter>
<filter id="filter2_f_72_964" x="55.0398" y="33.24" width="2.4702" height="2.4702" filterUnits="userSpaceOnUse" color-interpolation-filters="sRGB">
<feFlood flood-opacity="0" result="BackgroundImageFix"/>
<feBlend mode="normal" in="SourceGraphic" in2="BackgroundImageFix" result="shape"/>
<feGaussianBlur stdDeviation="0.13" result="effect1_foregroundBlur_72_964"/>
</filter>
<filter id="filter3_f_72_964" x="49.8396" y="51.4402" width="1.8198" height="1.8198" filterUnits="userSpaceOnUse" color-interpolation-filters="sRGB">
<feFlood flood-opacity="0" result="BackgroundImageFix"/>
<feBlend mode="normal" in="SourceGraphic" in2="BackgroundImageFix" result="shape"/>
<feGaussianBlur stdDeviation="0.13" result="effect1_foregroundBlur_72_964"/>
</filter>
<filter id="filter4_dii_72_964" x="88.0521" y="0.202635" width="92.6475" height="92.6475" filterUnits="userSpaceOnUse" color-interpolation-filters="sRGB">
<feFlood flood-opacity="0" result="BackgroundImageFix"/>
<feColorMatrix in="SourceAlpha" type="matrix" values="0 0 0 0 0 0 0 0 0 0 0 0 0 0 0 0 0 0 127 0" result="hardAlpha"/>
<feOffset dx="-3.9"/>
<feGaussianBlur stdDeviation="9.75"/>
<feColorMatrix type="matrix" values="0 0 0 0 0.717122 0 0 0 0 0.717122 0 0 0 0 0.717122 0 0 0 0.31 0"/>
<feBlend mode="normal" in2="BackgroundImageFix" result="effect1_dropShadow_72_964"/>
<feBlend mode="normal" in="SourceGraphic" in2="effect1_dropShadow_72_964" result="shape"/>
<feColorMatrix in="SourceAlpha" type="matrix" values="0 0 0 0 0 0 0 0 0 0 0 0 0 0 0 0 0 0 127 0" result="hardAlpha"/>
<feOffset dy="2.6"/>
<feGaussianBlur stdDeviation="2.6"/>
<feComposite in2="hardAlpha" operator="arithmetic" k2="-1" k3="1"/>
<feColorMatrix type="matrix" values="0 0 0 0 0.747882 0 0 0 0 0.749977 0 0 0 0 0.754167 0 0 0 1 0"/>
<feBlend mode="normal" in2="shape" result="effect2_innerShadow_72_964"/>
<feColorMatrix in="SourceAlpha" type="matrix" values="0 0 0 0 0 0 0 0 0 0 0 0 0 0 0 0 0 0 127 0" result="hardAlpha"/>
<feOffset dy="-2.6"/>
<feGaussianBlur stdDeviation="2.6"/>
<feComposite in2="hardAlpha" operator="arithmetic" k2="-1" k3="1"/>
<feColorMatrix type="matrix" values="0 0 0 0 1 0 0 0 0 1 0 0 0 0 1 0 0 0 1 0"/>
<feBlend mode="normal" in2="effect2_innerShadow_72_964" result="effect3_innerShadow_72_964"/>
</filter>
<linearGradient id="paint0_linear_72_964" x1="88.45" y1="-1.6" x2="89.1" y2="99.15" gradientUnits="userSpaceOnUse">
<stop offset="0.125"/>
<stop offset="1" stop-color="white" stop-opacity="0"/>
</linearGradient>
<clipPath id="clip0_72_964">
<rect width="181" height="93" fill="white"/>
</clipPath>
</defs>
</svg>
