<svg version="1.2" xmlns="http://www.w3.org/2000/svg" viewBox="0 0 197 172" width="197" height="172"><style>.a{fill:#6adb82}.b{fill:#50b563}.c{fill:#fff}</style><path class="a" d="m32.2 33.6c0 0-14.3 51.1 5.1 79.6 19.4 28.6 74.5 18.4 74.5 18.4 0 0 4.1 19.4-9.2 24.5 27.6-8.2 38.8-28.6 38.8-28.6 0 0 22.5-2 26.5-16.3 4.1-14.3 13.2-73.3-15.3-84.7-25.5-10.2-108.1-16.3-120.4 7.1z"/><path class="b" d="m56.8 72.5c0-6 4.8-10.8 10.7-10.8 6 0 10.8 4.8 10.8 10.8 0 5.9-4.8 10.7-10.8 10.7-5.9 0-10.7-4.8-10.7-10.7z"/><path class="c" d="m53.8 69c0-6 4.8-10.8 10.7-10.8 6 0 10.8 4.8 10.8 10.8 0 5.9-4.8 10.7-10.8 10.7-5.9 0-10.7-4.8-10.7-10.7z"/><path class="b" d="m89.3 74.5c0-6 4.8-10.8 10.7-10.8 6 0 10.8 4.8 10.8 10.8 0 5.9-4.8 10.7-10.8 10.7-5.9 0-10.7-4.8-10.7-10.7z"/><path class="c" d="m87.3 70c0-6 4.8-10.8 10.7-10.8 6 0 10.8 4.8 10.8 10.8 0 5.9-4.8 10.7-10.8 10.7-5.9 0-10.7-4.8-10.7-10.7z"/><path class="b" d="m123.3 70.5c0-6 4.8-10.8 10.7-10.8 6 0 10.8 4.8 10.8 10.8 0 5.9-4.8 10.7-10.8 10.7-5.9 0-10.7-4.8-10.7-10.7z"/><path class="c" d="m121.3 67c0-6 4.8-10.8 10.7-10.8 6 0 10.8 4.8 10.8 10.8 0 5.9-4.8 10.7-10.8 10.7-5.9 0-10.7-4.8-10.7-10.7z"/></svg>