<svg width="37" height="38" viewBox="0 0 37 38" fill="none" xmlns="http://www.w3.org/2000/svg">
<path fill-rule="evenodd" clip-rule="evenodd" d="M19.2566 22.2949C16.998 22.2949 15.1659 20.3396 15.1659 17.9266C15.1659 16.704 15.6346 15.6019 16.3925 14.8079C16.674 14.5131 16.6783 14.0305 16.4022 13.73C16.1261 13.4295 15.6742 13.4248 15.3928 13.7197C14.3727 14.7882 13.7383 16.2777 13.7383 17.9266C13.7383 21.1818 16.2098 23.8193 19.2566 23.8193C20.7994 23.8193 22.1955 23.1419 23.1963 22.0526C23.4724 21.7521 23.4681 21.2695 23.1866 20.9747C22.9052 20.6799 22.4533 20.6845 22.1772 20.985C21.4337 21.7943 20.4003 22.2949 19.2566 22.2949Z" fill="#677185"/>
<path fill-rule="evenodd" clip-rule="evenodd" d="M7.93833 24.2374C10.2325 27.2459 13.875 30.3359 19.1324 30.3359C22.698 30.3359 25.5363 28.9107 27.7131 27.051C28.0176 26.7909 28.0655 26.3183 27.8201 25.9955C27.5746 25.6727 27.1288 25.6219 26.8243 25.8821C24.8474 27.571 22.3138 28.8346 19.1324 28.8346C14.4612 28.8346 11.1837 26.1049 9.03982 23.2936C7.96946 21.89 7.19595 20.4827 6.69014 19.425C6.43766 18.8971 6.25303 18.4587 6.13236 18.1548C6.10233 18.0791 6.07629 18.0119 6.05416 17.9537C6.10819 17.8189 6.1842 17.6352 6.28262 17.4114C6.50863 16.8976 6.85193 16.1738 7.31755 15.3436C8.25183 13.6778 9.6631 11.6114 11.5847 9.94613C11.8875 9.68373 11.9323 9.21081 11.6848 8.88983C11.4372 8.56886 10.9911 8.52137 10.6883 8.78377C8.59523 10.5976 7.08433 12.8215 6.1001 14.5764C5.60647 15.4565 5.24144 16.2257 4.99892 16.7771C4.87759 17.053 4.7867 17.2749 4.72553 17.4295C4.69494 17.5068 4.67177 17.5674 4.65591 17.6095C4.64798 17.6306 4.64189 17.6471 4.6376 17.6587L4.63254 17.6726L4.63103 17.6767L4.63053 17.6781L4.63035 17.6786C4.63027 17.6789 4.6302 17.679 5.29216 17.9458C4.62505 18.1977 4.62516 18.198 4.62528 18.1984L4.6256 18.1993L4.62652 18.202L4.62945 18.2106C4.63188 18.2177 4.6353 18.2276 4.63969 18.2402C4.64848 18.2653 4.66121 18.3012 4.67793 18.3471C4.71138 18.4388 4.76086 18.5707 4.8269 18.7371C4.95893 19.0697 5.15747 19.5406 5.42685 20.1039C5.96475 21.2286 6.7897 22.7312 7.93833 24.2374ZM5.29216 17.9458L4.62505 18.1977C4.56858 18.0297 4.5704 17.8458 4.6302 17.679L5.29216 17.9458Z" fill="#677185"/>
<path fill-rule="evenodd" clip-rule="evenodd" d="M28.6242 24.7161C28.9132 24.9894 29.3572 24.9635 29.6159 24.6582C30.9743 23.0554 31.9491 21.3864 32.5838 20.1215C32.9017 19.4879 33.1359 18.9525 33.2915 18.573C33.3694 18.3832 33.4276 18.2321 33.467 18.127C33.4866 18.0744 33.5016 18.0333 33.5119 18.0046C33.517 17.9902 33.521 17.9789 33.5238 17.9709L33.5272 17.9611L33.5282 17.9581L33.5286 17.9571L33.5288 17.9567C33.5288 17.9565 33.5289 17.9563 32.8686 17.7035C33.5251 17.4401 33.525 17.4398 33.5249 17.4394L33.5236 17.4359L33.5206 17.4275C33.518 17.4205 33.5144 17.4108 33.5098 17.3983C33.5005 17.3735 33.4871 17.3379 33.4694 17.2924C33.4342 17.2013 33.3821 17.0702 33.3129 16.9048C33.1745 16.5742 32.9672 16.1056 32.6885 15.5451C32.132 14.4259 31.2861 12.9306 30.1281 11.4315C27.819 8.44244 24.1997 5.35576 19.1107 5.35576C16.8155 5.35576 14.8115 5.98669 13.0923 6.95672C12.7501 7.14975 12.6209 7.59922 12.8037 7.96064C12.9864 8.32205 13.4119 8.45855 13.754 8.26551C15.291 7.39834 17.0694 6.83955 19.1107 6.83955C23.6065 6.83955 26.8661 9.5558 29.0398 12.3696C30.1232 13.7721 30.9195 15.1782 31.445 16.2351C31.7073 16.7626 31.9009 17.2008 32.0282 17.5048C32.0604 17.5818 32.0884 17.6501 32.1121 17.7091C32.0825 17.7853 32.0461 17.8773 32.0026 17.9832C31.8596 18.3319 31.6412 18.8318 31.3427 19.4266C30.7445 20.6188 29.8312 22.1797 28.5694 23.6685C28.3106 23.9738 28.3352 24.4428 28.6242 24.7161ZM32.8686 17.7035L33.5251 17.4401C33.5848 17.6062 33.5862 17.7893 33.5289 17.9563L32.8686 17.7035Z" fill="#677185"/>
<path fill-rule="evenodd" clip-rule="evenodd" d="M23.5713 19.4643C23.9365 19.535 24.2823 19.2518 24.3438 18.8319C24.3909 18.5099 24.4177 18.1768 24.4177 17.8334C24.4177 14.5422 22.0976 11.8725 19.2343 11.8725C18.9356 11.8725 18.6459 11.9033 18.3659 11.9575C18.0008 12.0282 17.7546 12.4259 17.816 12.8458C17.8775 13.2658 18.2234 13.5489 18.5885 13.4782C18.801 13.4371 19.0161 13.4146 19.2343 13.4146C21.3568 13.4146 23.0767 15.3936 23.0767 17.8334C23.0767 18.0843 23.0572 18.3316 23.0214 18.576C22.9599 18.9959 23.2061 19.3936 23.5713 19.4643Z" fill="#677185"/>
<path fill-rule="evenodd" clip-rule="evenodd" d="M13.7383 17.9266C13.7383 21.1817 16.2084 23.8193 19.2566 23.8193C20.8008 23.8193 22.1956 23.1418 23.1963 22.0526C23.4724 21.7521 23.4681 21.2695 23.1866 20.9747C22.9052 20.6799 22.4533 20.6845 22.1772 20.985C21.4336 21.7944 20.4015 22.2949 19.2566 22.2949C16.9968 22.2949 15.1659 20.3398 15.1659 17.9266C15.1659 16.7053 15.6347 15.6018 16.3925 14.8079C16.674 14.5131 16.6783 14.0305 16.4022 13.73C16.1261 13.4295 15.6742 13.4248 15.3928 13.7197C14.3727 14.7883 13.7383 16.2792 13.7383 17.9266Z" fill="#677185"/>
</svg>
