<svg width="200" height="186" viewBox="0 0 200 186" fill="none" xmlns="http://www.w3.org/2000/svg">
<path d="M97.6523 3.55127H97.6667V3.55425C107.144 3.55575 116.302 4.83045 124.948 7.20522C126.33 7.58435 127.725 8.00228 129.13 8.45305C136.24 10.7398 142.962 13.7743 149.187 17.4521C149.625 17.7103 149.756 18.2507 149.479 18.6581C149.45 18.6984 149.417 18.7387 149.383 18.7746L142.498 26.981C142.193 27.3452 141.637 27.4228 141.232 27.1676L141.216 27.1587C139.466 26.1541 137.658 25.2033 135.802 24.3092C133.931 23.4107 132.03 22.5778 130.102 21.818L130.099 21.8165C120.134 17.8865 109.168 15.7132 97.6507 15.7132H97.641V15.7102C86.1667 15.7102 75.2287 17.876 65.2831 21.7867C63.6581 22.4255 62.0636 23.1092 60.5061 23.8331C52.4664 27.5706 45.1637 32.4918 38.8613 38.3504L38.8549 38.3563L38.8115 38.3937C36.7209 40.34 34.7411 42.3894 32.8833 44.5328C31.0143 46.6897 29.2625 48.945 27.6455 51.2855C19.3328 63.316 14.5093 77.6333 14.5093 92.9984V93.0074H14.5061C14.5061 103.674 16.836 113.841 21.0429 123.087C21.7302 124.599 22.4656 126.079 23.2443 127.527C27.265 134.999 32.559 141.789 38.8629 147.648L38.8694 147.654L38.9047 147.688C40.9985 149.633 43.2063 151.475 45.5137 153.204C47.834 154.942 50.2602 156.569 52.7795 158.072C65.7214 165.8 81.1248 170.284 97.6523 170.284H97.6619V170.288C109.139 170.287 120.074 168.122 130.02 164.212C131.646 163.573 133.239 162.889 134.797 162.165C142.837 158.428 150.141 153.507 156.442 147.648L156.45 147.64L156.498 147.597C158.585 145.652 160.563 143.606 162.42 141.465C164.29 139.309 166.04 137.052 167.657 134.711C175.972 122.681 180.794 108.364 180.794 92.9999V92.985H180.798C180.797 86.5383 179.944 80.2663 178.337 74.2719C178.07 73.2733 177.789 72.3046 177.497 71.3673C175.952 66.4311 173.889 61.6965 171.373 57.2202C171.155 56.8336 171.28 56.3649 171.649 56.1141L180.546 49.5749C180.951 49.2764 181.54 49.3406 181.86 49.7182C181.889 49.751 181.913 49.7869 181.934 49.8227H181.937L181.943 49.8346L181.953 49.8525C183.014 51.6407 184.018 53.4722 184.951 55.3394C185.885 57.2082 186.751 59.1083 187.544 61.0323C191.634 70.9613 193.875 81.741 193.875 93.0014V93.0103H193.872C193.87 105.356 191.176 117.122 186.308 127.82C185.519 129.556 184.668 131.271 183.758 132.959C179.096 141.624 172.972 149.481 165.692 156.25L165.686 156.256L165.65 156.286C163.222 158.541 160.665 160.674 157.99 162.679C155.303 164.692 152.496 166.573 149.585 168.312C134.604 177.256 116.776 182.449 97.6507 182.449H97.641V182.446C84.3603 182.444 71.7026 179.939 60.1946 175.414C58.3272 174.681 56.4822 173.888 54.6646 173.042C45.3451 168.71 36.8911 163.016 29.6093 156.25L29.6029 156.242L29.5579 156.199C27.1365 153.945 24.8452 151.572 22.6936 149.09C20.5291 146.593 18.5043 143.984 16.6353 141.277C7.01395 127.348 1.42773 110.777 1.42773 92.9999V92.9894H1.43095C1.43255 80.6439 4.12691 68.8791 8.99377 58.1799C9.78378 56.444 10.6348 54.7304 11.5452 53.0393C16.205 44.3761 22.3307 36.5189 29.6093 29.7499L29.6157 29.7439L29.6575 29.7095C32.0821 27.4572 34.6399 25.3242 37.3102 23.3226C39.9982 21.3105 42.8033 19.4283 45.716 17.6909C60.702 8.74262 78.5284 3.55127 97.6523 3.55127ZM150.865 27.8796L177.793 3.96174L179.586 20.0926L198.736 22.3181L169.901 48.2913L155.87 49.4107L99.8826 97.8166L94.7235 93.6865L147.755 42.1909L150.865 27.8796ZM97.6523 64.6863H97.6764V64.6893C99.4876 64.6907 101.251 64.8355 102.948 65.1132C103.145 65.146 103.425 65.1953 103.778 65.2624H103.783C105.196 65.5311 106.58 65.8938 107.924 66.3416C108.412 66.5028 108.666 67.0013 108.491 67.4551C108.457 67.5446 108.406 67.6252 108.346 67.6969L108.348 67.6984L100.832 76.6601C100.621 76.9124 100.287 77.0243 99.9677 76.9855V76.9885L99.9243 76.9825L99.5903 76.9467L99.5615 76.9422L99.2724 76.9139L99.2483 76.9109C98.7474 76.8706 98.2159 76.8482 97.6523 76.8482H97.6426V76.8437C95.2486 76.8452 92.962 77.299 90.8843 78.1169C90.5407 78.2528 90.2067 78.396 89.8871 78.5438C88.214 79.3215 86.6886 80.3499 85.3671 81.5783L85.3607 81.5843L85.3173 81.6201C84.8934 82.0172 84.492 82.4366 84.113 82.8739C83.7229 83.3232 83.3568 83.7964 83.018 84.2859C81.2838 86.7965 80.2786 89.7893 80.2786 92.9984V93.0074H80.2738C80.2754 95.2359 80.7636 97.3599 81.6435 99.2898C81.7896 99.6107 81.9438 99.9212 82.1027 100.217C82.9393 101.774 84.0472 103.19 85.3671 104.417L85.3735 104.424L85.4121 104.462C85.8392 104.856 86.2904 105.232 86.7608 105.583C87.2442 105.945 87.7532 106.287 88.2798 106.602C90.9822 108.213 94.2016 109.149 97.6523 109.149H97.6619V109.152C100.059 109.152 102.346 108.698 104.42 107.88C104.766 107.744 105.098 107.601 105.417 107.453C107.092 106.674 108.616 105.645 109.936 104.417L109.944 104.41L109.976 104.381C110.21 104.162 110.438 103.939 110.649 103.72C110.859 103.501 111.079 103.254 111.304 102.989C112.393 101.705 113.277 100.266 113.907 98.7182C113.979 98.5375 114.109 98.3913 114.271 98.2942L126.417 89.3654C126.823 89.0668 127.411 89.131 127.732 89.5086C127.844 89.6415 127.907 89.7952 127.926 89.952H127.931L127.939 90.0191L127.942 90.0654L127.981 90.4386V90.449H127.984L128.019 90.855V90.8625C128.075 91.5789 128.108 92.2909 128.108 92.9984V93.0074H128.103C128.101 96.9136 127.248 100.636 125.709 104.021C125.461 104.566 125.19 105.11 124.901 105.648C123.422 108.393 121.486 110.882 119.185 113.019L119.178 113.025L119.127 113.065C118.369 113.767 117.573 114.434 116.742 115.056C115.891 115.692 115.002 116.289 114.083 116.837C109.34 119.667 103.701 121.311 97.6507 121.311H97.641V121.306C93.4389 121.305 89.4343 120.512 85.7942 119.081C85.2081 118.851 84.6221 118.598 84.044 118.33C81.0911 116.955 78.4144 115.155 76.1151 113.018L76.1087 113.012L76.0557 112.958C75.3042 112.255 74.5913 111.516 73.9233 110.746C73.2377 109.955 72.597 109.129 72.0061 108.274C68.9617 103.866 67.1938 98.6226 67.1938 92.9999V92.9894H67.197C67.1986 89.0847 68.0529 85.3621 69.5911 81.9783C69.84 81.4335 70.1098 80.8902 70.3988 80.3514C71.8744 77.6109 73.8109 75.1242 76.1135 72.9838L76.1151 72.9823L76.1135 72.9808L76.1199 72.9748C76.8826 72.2673 77.6967 71.5882 78.5573 70.9434C79.4084 70.306 80.2963 69.7105 81.2164 69.1612C85.9628 66.3297 91.6052 64.6863 97.6523 64.6863ZM99.2467 76.9109C98.7538 76.8542 98.3941 76.4482 98.4246 75.9884L99.2467 76.9109ZM97.6523 33.8665H97.6683V33.8695C103.359 33.871 108.871 34.5666 114.107 35.8666C114.96 36.0786 115.808 36.307 116.648 36.5517C120.959 37.8026 125.079 39.4743 128.949 41.5117C129.398 41.7491 129.557 42.2819 129.302 42.6999C129.278 42.7357 129.254 42.773 129.225 42.8059L129.22 42.8103L122.245 51.1272C121.953 51.4735 121.434 51.5601 121.036 51.3467L121.014 51.3362C120.069 50.878 119.085 50.4347 118.062 50.0167C117.033 49.5943 115.999 49.2062 114.962 48.854C109.568 47.024 103.736 46.0254 97.6507 46.0254H97.641V46.0225C90.6675 46.0225 84.0215 47.3405 77.9761 49.7167C77.0223 50.0929 76.0525 50.5093 75.073 50.9631L74.9991 50.9944C70.1451 53.2617 65.7326 56.2395 61.9191 59.783L61.9127 59.789L61.8758 59.8233C60.6121 61.001 59.4126 62.2458 58.287 63.5444C57.1518 64.8549 56.0872 66.2267 55.1045 67.6491C50.0546 74.96 47.1242 83.662 47.1242 92.9984V93.0074H47.121C47.121 99.4898 48.5389 105.669 51.0951 111.288C51.5126 112.207 51.9606 113.109 52.4327 113.986C54.8749 118.525 58.0927 122.651 61.9239 126.212L61.9304 126.218C63.2181 127.417 64.5685 128.545 65.9687 129.593C67.3785 130.648 68.8541 131.638 70.3843 132.552C78.249 137.247 87.6119 139.97 97.6539 139.97H97.6635V139.973C104.637 139.973 111.285 138.656 117.33 136.28C118.319 135.891 119.289 135.476 120.233 135.035C125.116 132.765 129.554 129.775 133.385 126.212L133.392 126.206C134.681 125.008 135.895 123.754 137.022 122.452C138.158 121.14 139.222 119.77 140.205 118.346C145.258 111.034 148.188 102.332 148.188 92.9984H148.185V92.976H148.188C148.188 90.0788 147.903 87.2369 147.36 84.4815C147.278 84.0695 147.182 83.6187 147.071 83.1396C146.546 80.8484 145.841 78.6259 144.979 76.4885C144.824 76.1049 144.979 75.6839 145.327 75.463L154.42 68.7791C154.826 68.4805 155.414 68.5447 155.734 68.9223C155.782 68.9806 155.82 69.0388 155.851 69.1015L155.859 69.1164L155.865 69.1283L155.867 69.1268C156.34 70.1254 156.796 71.1643 157.232 72.2405C157.66 73.3032 158.055 74.3704 158.41 75.4391C160.265 80.9902 161.265 86.8876 161.265 92.9969V93.0059H161.26C161.26 101.166 159.48 108.944 156.262 116.015C155.742 117.16 155.176 118.294 154.574 119.413C151.493 125.142 147.445 130.336 142.633 134.808L142.625 134.814L142.589 134.846C140.987 136.331 139.301 137.74 137.538 139.061C135.762 140.392 133.906 141.636 131.982 142.783C122.075 148.697 110.291 152.129 97.6507 152.129H97.641C88.8627 152.127 80.4954 150.472 72.8876 147.481C71.6561 146.996 70.4357 146.472 69.2315 145.912C63.0704 143.046 57.481 139.285 52.6687 134.811L52.6623 134.805L52.6173 134.761C51.0229 133.275 49.5119 131.711 48.0957 130.075C46.6634 128.424 45.3259 126.699 44.0895 124.911C37.7277 115.703 34.0362 104.747 34.0362 92.9984V92.9894H34.0394C34.041 84.8293 35.8233 77.0512 39.0412 69.9791C39.5614 68.8343 40.125 67.6999 40.7271 66.5804C43.8069 60.8562 47.8548 55.6633 52.6671 51.1884L52.6687 51.187L52.6671 51.1855L52.6735 51.1795L52.7153 51.1437C54.3145 49.6585 56.0005 48.2525 57.7604 46.9345C59.5379 45.603 61.3924 44.3597 63.3161 43.2118C73.2264 37.2981 85.0138 33.8665 97.6523 33.8665Z" fill="#3ABB5D"/>
</svg>
