<svg version="1.2" xmlns="http://www.w3.org/2000/svg" viewBox="0 0 200 186" width="200" height="186">
	<title>target-svg</title>
	<style>
		.s0 { fill: #d6971d } 
	</style>
	<path id="Layer" fill-rule="evenodd" class="s0" d="m97.7 3.6c9.4 0 18.6 1.2 27.2 3.6q2.1 0.6 4.2 1.3c7.1 2.2 13.9 5.3 20.1 9 0.4 0.2 0.6 0.8 0.3 1.2q-0.1 0-0.1 0.1l-6.9 8.2c-0.3 0.3-0.9 0.4-1.3 0.2q-2.6-1.5-5.4-2.9-2.8-1.3-5.7-2.5c-10-3.9-20.9-6.1-32.4-6.1h-0.1c-11.4 0-22.4 2.2-32.3 6.1q-2.5 0.9-4.8 2c-8 3.8-15.3 8.7-21.6 14.6h-0.1q-3.1 2.9-5.9 6.1-2.8 3.3-5.3 6.8c-8.3 12-13.1 26.3-13.1 41.7 0 10.7 2.3 20.8 6.5 30.1q1.1 2.3 2.2 4.4c4.1 7.5 9.4 14.3 15.7 20.1v0.1q3.1 2.9 6.6 5.5 3.5 2.6 7.3 4.9c12.9 7.7 28.3 12.2 44.9 12.2 11.4 0 22.4-2.2 32.3-6.1q2.5-0.9 4.8-2c8-3.8 15.3-8.7 21.6-14.6h0.1q3.1-2.9 5.9-6.1 2.8-3.3 5.3-6.8c8.3-12 13.1-26.3 13.1-41.7 0-6.5-0.9-12.7-2.5-18.7q-0.4-1.5-0.8-2.9c-1.5-5-3.6-9.7-6.1-14.2-0.2-0.4-0.1-0.8 0.2-1.1l8.9-6.5c0.5-0.3 1-0.3 1.4 0.1q0 0.1 0 0.1l0.1 0.1q1.5 2.6 3 5.4 1.4 2.8 2.5 5.7c4.1 10 6.4 20.7 6.4 32 0 12.4-2.7 24.1-7.6 34.8q-1.2 2.6-2.5 5.2c-4.7 8.6-10.8 16.5-18.1 23.2v0.1q-3.7 3.4-7.7 6.4-4 3-8.4 5.6c-15 9-32.8 14.1-51.9 14.1h-0.1c-13.2 0-25.9-2.5-37.4-7q-2.8-1.1-5.5-2.4c-9.4-4.3-17.8-10-25.1-16.8q-3.7-3.4-6.9-7.1-3.3-3.8-6.1-7.8c-9.6-14-15.2-30.5-15.2-48.3 0-12.4 2.7-24.1 7.6-34.8q1.2-2.6 2.5-5.2c4.7-8.6 10.8-16.5 18.1-23.3h0.1q3.6-3.4 7.6-6.4 4-3 8.4-5.6c15-9 32.8-14.1 52-14.1zm53.2 24.3l26.9-23.9 1.8 16.1 19.1 2.2-28.8 26-14 1.1-56 48.4-5.2-4.1 53.1-51.5zm-53.3 6h0.1c5.6 0 11.2 0.7 16.4 2q1.3 0.3 2.5 0.7c4.3 1.2 8.5 2.9 12.3 4.9 0.5 0.3 0.6 0.8 0.4 1.2q0 0.1-0.1 0.1l-7 8.3c-0.3 0.4-0.8 0.5-1.2 0.3v-0.1q-1.4-0.6-2.9-1.3-1.6-0.6-3.1-1.1c-5.4-1.9-11.3-2.9-17.4-2.9-6.9 0-13.6 1.4-19.6 3.7q-1.5 0.6-2.9 1.3h-0.1c-4.9 2.3-9.3 5.3-13.1 8.8q-1.9 1.8-3.6 3.8-1.7 1.9-3.2 4.1c-5.1 7.3-8 16-8 25.3 0 6.5 1.4 12.7 4 18.3q0.6 1.4 1.3 2.7c2.5 4.5 5.7 8.7 9.5 12.2q2 1.8 4.1 3.4 2.1 1.6 4.4 3c7.8 4.7 17.2 7.4 27.2 7.4h0.1c6.9 0 13.6-1.3 19.6-3.7q1.5-0.6 2.9-1.3c4.9-2.2 9.3-5.2 13.2-8.8q1.9-1.8 3.6-3.7 1.7-2 3.2-4.1c5-7.4 8-16.1 8-25.4q0-4.4-0.9-8.5-0.1-0.6-0.2-1.3-0.8-3.5-2.1-6.7c-0.2-0.4 0-0.8 0.3-1l9.1-6.7c0.4-0.3 1-0.2 1.3 0.1q0.1 0.1 0.1 0.2h0.1q0.7 1.5 1.3 3.2 0.7 1.5 1.2 3.2c1.9 5.5 2.9 11.4 2.9 17.5h-0.1c0 8.2-1.7 16-4.9 23q-0.8 1.7-1.7 3.4c-3.1 5.8-7.2 10.9-12 15.4v0.1q-2.4 2.2-5.1 4.2-2.6 2-5.5 3.7c-9.9 5.9-21.7 9.3-34.4 9.3-8.7 0-17.1-1.6-24.7-4.6q-1.9-0.7-3.7-1.6c-6.1-2.8-11.7-6.6-16.5-11.1h-0.1q-2.4-2.3-4.5-4.7-2.2-2.5-4-5.2c-6.4-9.2-10.1-20.1-10.1-31.9 0-8.2 1.8-15.9 5-23q0.8-1.7 1.7-3.4c3.1-5.7 7.1-10.9 12-15.4q2.4-2.3 5.1-4.3 2.6-2 5.5-3.7c9.9-5.9 21.7-9.3 34.3-9.3zm0 30.8h0.1q2.7 0 5.2 0.4 0.3 0.1 0.9 0.2 2.1 0.4 4.1 1.1c0.5 0.1 0.8 0.6 0.6 1.1q-0.1 0.1-0.2 0.2l-7.5 9c-0.2 0.2-0.5 0.3-0.8 0.3h-0.1-0.3l-0.3-0.1h-0.1q0 0 0 0l-0.8-0.9c0 0.5 0.3 0.9 0.8 0.9q-0.7 0-1.6 0c-2.4 0-4.6 0.4-6.7 1.2q-0.5 0.2-1 0.5c-1.7 0.7-3.2 1.8-4.5 3h-0.1q-0.6 0.6-1.2 1.3-0.6 0.7-1.1 1.4c-1.7 2.5-2.7 5.5-2.7 8.7 0 2.2 0.5 4.4 1.3 6.3q0.3 0.5 0.5 0.9c0.8 1.6 1.9 3 3.3 4.2v0.1q0.6 0.6 1.4 1.1 0.7 0.5 1.5 1c2.7 1.6 5.9 2.6 9.3 2.6h0.1c2.3 0 4.6-0.5 6.7-1.3q0.5-0.2 1-0.4c1.7-0.8 3.2-1.8 4.5-3.1h0.1q0.3-0.3 0.6-0.7 0.4-0.3 0.7-0.7c1.1-1.3 2-2.7 2.6-4.3q0.1-0.2 0.4-0.4l12.1-8.9c0.4-0.3 1-0.3 1.3 0.1q0.2 0.2 0.2 0.5v0.1l0.1 0.3v0.1 0.4q0.1 1 0.1 2.1c0 3.9-0.9 7.6-2.4 11q-0.4 0.9-0.8 1.7c-1.5 2.7-3.4 5.2-5.7 7.3l-0.1 0.1q-1.1 1-2.4 2-1.2 0.9-2.6 1.7c-4.8 2.9-10.4 4.5-16.5 4.5-4.2 0-8.2-0.8-11.8-2.2q-0.9-0.4-1.8-0.8c-2.9-1.3-5.6-3.1-7.9-5.3h-0.1q-1.1-1.1-2.1-2.2-1-1.2-1.9-2.5c-3-4.4-4.8-9.7-4.8-15.3 0-3.9 0.8-7.6 2.4-11q0.4-0.8 0.8-1.6c1.5-2.8 3.4-5.3 5.7-7.4q1.2-1.1 2.4-2 1.3-1 2.7-1.8c4.8-2.9 10.4-4.5 16.4-4.5zm1.6 12.2q0 0 0 0 0 0 0 0z"/>
</svg>