<svg version="1.2" xmlns="http://www.w3.org/2000/svg" viewBox="0 0 161 153" width="161" height="153"><style>.a{fill:#c95555}.b{fill:#af4646}.c{fill:#fff}</style><path class="a" d="m14 71.9c2.4-20.1 37.3-71 83.5-62 46.2 9 54.3 65.4 44.4 88.9-15.1 36-54.7 48.6-79.9 40.5-44.5-14.4-50.2-49.1-48-67.4z"/><path class="b" d="m71.8 47.5l10.7 20.3 22.5-13 5.9 12.4-21.3 11.9 14.2 17.7-14.2 7.7-10.6-17.7-24.3 14.7-4.1-16.5 18.9-10.3-12.2-18.4z"/><path class="c" d="m67.9 40.5l10.8 20.3 22.5-13 5.9 12.4-21.3 11.9 14.2 17.7-14.2 7.7-10.7-17.7-24.2 14.7-4.1-16.5 18.9-10.3-12.3-18.5z"/></svg>